<mxfile host="Electron" agent="Mozilla/5.0 (Windows NT 10.0; Win64; x64) AppleWebKit/537.36 (KHTML, like Gecko) draw.io/21.2.1 Chrome/112.0.5615.87 Electron/24.1.2 Safari/537.36" modified="2025-08-27T23:23:03.703Z" version="21.2.1" etag="aE6GSVEJgNOPcGr94hJ3" type="device">
  <diagram name="Página-1" id="lokdEbA8G1ehxd-gUij3">
    <mxGraphModel dx="2868" dy="1688" grid="1" gridSize="10" guides="1" tooltips="1" connect="1" arrows="1" fold="1" page="1" pageScale="1" pageWidth="33333" pageHeight="3333" math="0" shadow="0">
      <root>
        <mxCell id="0" />
        <mxCell id="1" parent="0" />
        <mxCell id="4QvC7mtdX6xe_Pmgo2VK-459" value="" style="group" parent="1" vertex="1" connectable="0">
          <mxGeometry x="220" y="230" width="730" height="2100" as="geometry" />
        </mxCell>
        <mxCell id="4QvC7mtdX6xe_Pmgo2VK-355" value="7" style="swimlane;startSize=0;fillColor=none;strokeColor=#6c8ebf;gradientColor=none;swimlaneFillColor=#f6f6f7;movable=1;resizable=1;rotatable=1;deletable=1;editable=1;locked=0;connectable=1;" parent="4QvC7mtdX6xe_Pmgo2VK-459" vertex="1">
          <mxGeometry width="730.0000000000001" height="2100" as="geometry" />
        </mxCell>
        <mxCell id="4QvC7mtdX6xe_Pmgo2VK-356" value="&lt;font style=&quot;font-size: 22px;&quot;&gt;Requerimiento&lt;/font&gt;" style="text;html=1;align=center;verticalAlign=middle;resizable=0;points=[];autosize=1;strokeColor=none;fillColor=none;" parent="4QvC7mtdX6xe_Pmgo2VK-355" vertex="1">
          <mxGeometry x="228.12500000000006" y="31.00393700787401" width="170" height="40" as="geometry" />
        </mxCell>
        <mxCell id="4QvC7mtdX6xe_Pmgo2VK-357" value="&lt;font style=&quot;font-size: 22px;&quot;&gt;Predecesores&lt;/font&gt;" style="text;html=1;align=center;verticalAlign=middle;resizable=0;points=[];autosize=1;strokeColor=none;fillColor=none;" parent="4QvC7mtdX6xe_Pmgo2VK-355" vertex="1">
          <mxGeometry x="415.6770833333334" y="31.00393700787401" width="160" height="40" as="geometry" />
        </mxCell>
        <mxCell id="4QvC7mtdX6xe_Pmgo2VK-358" value="&lt;font style=&quot;font-size: 22px;&quot;&gt;Duración(hs)&lt;/font&gt;" style="text;html=1;align=center;verticalAlign=middle;resizable=0;points=[];autosize=1;strokeColor=none;fillColor=none;" parent="4QvC7mtdX6xe_Pmgo2VK-355" vertex="1">
          <mxGeometry x="569.4270833333334" y="31.83070866141732" width="150" height="40" as="geometry" />
        </mxCell>
        <mxCell id="4QvC7mtdX6xe_Pmgo2VK-359" value="&lt;font color=&quot;#ffffff&quot;&gt;Crear fondo base y estética de la página en HTML&lt;/font&gt;" style="rounded=1;whiteSpace=wrap;html=1;fillColor=#75B3F9;fontColor=#9da6b0;strokeColor=none;gradientColor=none;fontSize=20;fontStyle=1;imageWidth=59;" parent="4QvC7mtdX6xe_Pmgo2VK-355" vertex="1">
          <mxGeometry x="167.29166666666669" y="479.5275590551181" width="254.73958333333337" height="66.96850393700787" as="geometry" />
        </mxCell>
        <mxCell id="4QvC7mtdX6xe_Pmgo2VK-360" value="" style="rounded=1;whiteSpace=wrap;html=1;fillColor=#75B3F9;fontColor=#9da6b0;strokeColor=none;gradientColor=none;fontSize=20;fontStyle=1" parent="4QvC7mtdX6xe_Pmgo2VK-355" vertex="1">
          <mxGeometry x="454.72916666666674" y="480.35433070866145" width="91.25000000000001" height="66.14173228346456" as="geometry" />
        </mxCell>
        <mxCell id="4QvC7mtdX6xe_Pmgo2VK-361" value="&lt;font color=&quot;#ffffff&quot;&gt;3&lt;/font&gt;" style="rounded=1;whiteSpace=wrap;html=1;fillColor=#75B3F9;fontColor=#9da6b0;strokeColor=none;gradientColor=none;fontSize=20;fontStyle=1" parent="4QvC7mtdX6xe_Pmgo2VK-355" vertex="1">
          <mxGeometry x="576.3958333333334" y="480.35433070866145" width="91.25000000000001" height="66.14173228346456" as="geometry" />
        </mxCell>
        <mxCell id="4QvC7mtdX6xe_Pmgo2VK-362" value="Crear func. advertencia" style="rounded=1;whiteSpace=wrap;html=1;fillColor=#A3CBFB;gradientColor=none;strokeColor=#6c8ebf;fontSize=20;fontStyle=1;fontColor=#9da6b0;imageWidth=59;" parent="4QvC7mtdX6xe_Pmgo2VK-355" vertex="1">
          <mxGeometry x="167.29166666666669" y="578.7401574803149" width="182.50000000000003" height="66.14173228346456" as="geometry" />
        </mxCell>
        <mxCell id="4QvC7mtdX6xe_Pmgo2VK-363" value="" style="rounded=1;whiteSpace=wrap;html=1;fillColor=#A3CBFB;gradientColor=none;strokeColor=#6c8ebf;fontSize=20;fontStyle=1;fontColor=#9da6b0;" parent="4QvC7mtdX6xe_Pmgo2VK-355" vertex="1">
          <mxGeometry x="454.72916666666674" y="578.7401574803149" width="91.25000000000001" height="66.14173228346456" as="geometry" />
        </mxCell>
        <mxCell id="4QvC7mtdX6xe_Pmgo2VK-364" value="" style="rounded=1;whiteSpace=wrap;html=1;fillColor=#A3CBFB;gradientColor=none;strokeColor=#6c8ebf;fontSize=20;fontStyle=1;fontColor=#9da6b0;" parent="4QvC7mtdX6xe_Pmgo2VK-355" vertex="1">
          <mxGeometry x="576.3958333333334" y="578.7401574803149" width="91.25000000000001" height="66.14173228346456" as="geometry" />
        </mxCell>
        <mxCell id="4QvC7mtdX6xe_Pmgo2VK-365" value="Crear pagina para iniciar sesion" style="rounded=1;whiteSpace=wrap;html=1;fillColor=#A3CBFB;gradientColor=none;strokeColor=none;fontSize=20;fontStyle=1;fontColor=#9da6b0;imageWidth=59;" parent="4QvC7mtdX6xe_Pmgo2VK-355" vertex="1">
          <mxGeometry x="167.29166666666669" y="678.7795275590552" width="254.73958333333337" height="66.14173228346456" as="geometry" />
        </mxCell>
        <mxCell id="4QvC7mtdX6xe_Pmgo2VK-366" value="5,6" style="rounded=1;whiteSpace=wrap;html=1;fillColor=#A3CBFB;gradientColor=none;strokeColor=none;fontSize=20;fontStyle=1;fontColor=#9da6b0;" parent="4QvC7mtdX6xe_Pmgo2VK-355" vertex="1">
          <mxGeometry x="454.72916666666674" y="678.7795275590552" width="91.25000000000001" height="66.14173228346456" as="geometry" />
        </mxCell>
        <mxCell id="4QvC7mtdX6xe_Pmgo2VK-367" value="4" style="rounded=1;whiteSpace=wrap;html=1;fillColor=#A3CBFB;gradientColor=none;strokeColor=none;fontSize=20;fontStyle=1;fontColor=#9da6b0;" parent="4QvC7mtdX6xe_Pmgo2VK-355" vertex="1">
          <mxGeometry x="576.3958333333334" y="678.7795275590552" width="91.25000000000001" height="66.14173228346456" as="geometry" />
        </mxCell>
        <mxCell id="4QvC7mtdX6xe_Pmgo2VK-368" value="Crear css" style="rounded=1;whiteSpace=wrap;html=1;fillColor=#A3CBFB;gradientColor=none;strokeColor=none;fontSize=20;fontStyle=1;fontColor=#9da6b0;imageWidth=59;" parent="4QvC7mtdX6xe_Pmgo2VK-355" vertex="1">
          <mxGeometry x="167.29166666666669" y="777.1653543307087" width="254.73958333333337" height="66.14173228346456" as="geometry" />
        </mxCell>
        <mxCell id="4QvC7mtdX6xe_Pmgo2VK-369" value="5,6" style="rounded=1;whiteSpace=wrap;html=1;fillColor=#A3CBFB;gradientColor=none;strokeColor=none;fontSize=20;fontStyle=1;fontColor=#9da6b0;" parent="4QvC7mtdX6xe_Pmgo2VK-355" vertex="1">
          <mxGeometry x="454.72916666666674" y="777.1653543307087" width="91.25000000000001" height="66.14173228346456" as="geometry" />
        </mxCell>
        <mxCell id="4QvC7mtdX6xe_Pmgo2VK-370" value="1" style="rounded=1;whiteSpace=wrap;html=1;fillColor=#A3CBFB;gradientColor=none;strokeColor=none;fontSize=20;fontStyle=1;fontColor=#9da6b0;" parent="4QvC7mtdX6xe_Pmgo2VK-355" vertex="1">
          <mxGeometry x="576.3958333333334" y="777.1653543307087" width="91.25000000000001" height="66.14173228346456" as="geometry" />
        </mxCell>
        <mxCell id="4QvC7mtdX6xe_Pmgo2VK-371" value="Funcion que detecte log in" style="rounded=1;whiteSpace=wrap;html=1;fillColor=#A3CBFB;strokeColor=none;gradientColor=none;fontSize=20;fontStyle=1;fontColor=#9da6b0;imageWidth=59;" parent="4QvC7mtdX6xe_Pmgo2VK-355" vertex="1">
          <mxGeometry x="167.29166666666669" y="877.2047244094488" width="254.73958333333337" height="66.14173228346456" as="geometry" />
        </mxCell>
        <mxCell id="4QvC7mtdX6xe_Pmgo2VK-372" value="7,8" style="rounded=1;whiteSpace=wrap;html=1;fillColor=#A3CBFB;strokeColor=none;gradientColor=none;fontSize=20;fontStyle=1;fontColor=#9da6b0;" parent="4QvC7mtdX6xe_Pmgo2VK-355" vertex="1">
          <mxGeometry x="454.72916666666674" y="877.2047244094488" width="91.25000000000001" height="66.14173228346456" as="geometry" />
        </mxCell>
        <mxCell id="4QvC7mtdX6xe_Pmgo2VK-373" value="3" style="rounded=1;whiteSpace=wrap;html=1;fillColor=#A3CBFB;strokeColor=none;gradientColor=none;fontSize=20;fontStyle=1;fontColor=#9da6b0;" parent="4QvC7mtdX6xe_Pmgo2VK-355" vertex="1">
          <mxGeometry x="576.3958333333334" y="877.2047244094488" width="91.25000000000001" height="66.14173228346456" as="geometry" />
        </mxCell>
        <mxCell id="4QvC7mtdX6xe_Pmgo2VK-374" value="Programar creacion de post" style="rounded=1;whiteSpace=wrap;html=1;fillColor=#A3CBFB;strokeColor=none;gradientColor=none;fontSize=20;fontStyle=1;fontColor=#9da6b0;imageWidth=59;" parent="4QvC7mtdX6xe_Pmgo2VK-355" vertex="1">
          <mxGeometry x="167.29166666666669" y="975.5905511811025" width="254.73958333333337" height="66.14173228346456" as="geometry" />
        </mxCell>
        <mxCell id="4QvC7mtdX6xe_Pmgo2VK-375" value="5,6" style="rounded=1;whiteSpace=wrap;html=1;fillColor=#A3CBFB;strokeColor=none;gradientColor=none;fontSize=20;fontStyle=1;fontColor=#9da6b0;" parent="4QvC7mtdX6xe_Pmgo2VK-355" vertex="1">
          <mxGeometry x="454.72916666666674" y="975.5905511811025" width="91.25000000000001" height="66.14173228346456" as="geometry" />
        </mxCell>
        <mxCell id="4QvC7mtdX6xe_Pmgo2VK-376" value="2" style="rounded=1;whiteSpace=wrap;html=1;fillColor=#A3CBFB;strokeColor=none;gradientColor=none;fontSize=20;fontStyle=1;fontColor=#9da6b0;" parent="4QvC7mtdX6xe_Pmgo2VK-355" vertex="1">
          <mxGeometry x="576.3958333333334" y="975.5905511811025" width="91.25000000000001" height="66.14173228346456" as="geometry" />
        </mxCell>
        <mxCell id="4QvC7mtdX6xe_Pmgo2VK-377" value="HTML de chat privado" style="rounded=1;whiteSpace=wrap;html=1;fillColor=#A3CBFB;strokeColor=none;gradientColor=none;fontSize=20;fontStyle=1;fontColor=#9da6b0;imageWidth=59;" parent="4QvC7mtdX6xe_Pmgo2VK-355" vertex="1">
          <mxGeometry x="167.29166666666669" y="1075.6299212598424" width="254.73958333333337" height="66.14173228346456" as="geometry" />
        </mxCell>
        <mxCell id="4QvC7mtdX6xe_Pmgo2VK-378" value="CSS de chat privado" style="rounded=1;whiteSpace=wrap;html=1;fillColor=#A3CBFB;strokeColor=none;gradientColor=none;fontSize=20;fontStyle=1;fontColor=#9da6b0;imageWidth=59;" parent="4QvC7mtdX6xe_Pmgo2VK-355" vertex="1">
          <mxGeometry x="167.29166666666669" y="1182.283464566929" width="254.73958333333337" height="66.14173228346456" as="geometry" />
        </mxCell>
        <mxCell id="4QvC7mtdX6xe_Pmgo2VK-379" value="5,6" style="rounded=1;whiteSpace=wrap;html=1;fillColor=#A3CBFB;strokeColor=none;gradientColor=none;fontSize=20;fontStyle=1;fontColor=#9da6b0;" parent="4QvC7mtdX6xe_Pmgo2VK-355" vertex="1">
          <mxGeometry x="454.72916666666674" y="1075.6299212598424" width="91.25000000000001" height="66.14173228346456" as="geometry" />
        </mxCell>
        <mxCell id="4QvC7mtdX6xe_Pmgo2VK-380" value="5,6" style="rounded=1;whiteSpace=wrap;html=1;fillColor=#A3CBFB;strokeColor=none;gradientColor=none;fontSize=20;fontStyle=1;fontColor=#9da6b0;" parent="4QvC7mtdX6xe_Pmgo2VK-355" vertex="1">
          <mxGeometry x="454.72916666666674" y="1182.283464566929" width="91.25000000000001" height="66.14173228346456" as="geometry" />
        </mxCell>
        <mxCell id="4QvC7mtdX6xe_Pmgo2VK-381" value="3" style="rounded=1;whiteSpace=wrap;html=1;fillColor=#A3CBFB;strokeColor=none;gradientColor=none;fontSize=20;fontStyle=1;fontColor=#9da6b0;" parent="4QvC7mtdX6xe_Pmgo2VK-355" vertex="1">
          <mxGeometry x="576.3958333333334" y="1075.6299212598424" width="91.25000000000001" height="66.14173228346456" as="geometry" />
        </mxCell>
        <mxCell id="4QvC7mtdX6xe_Pmgo2VK-382" value="2" style="rounded=1;whiteSpace=wrap;html=1;fillColor=#A3CBFB;strokeColor=none;gradientColor=none;fontSize=20;fontStyle=1;fontColor=#9da6b0;" parent="4QvC7mtdX6xe_Pmgo2VK-355" vertex="1">
          <mxGeometry x="576.3958333333334" y="1182.283464566929" width="91.25000000000001" height="66.14173228346456" as="geometry" />
        </mxCell>
        <mxCell id="4QvC7mtdX6xe_Pmgo2VK-383" value="&lt;font color=&quot;#ffffff&quot;&gt;Crear css&lt;/font&gt;" style="rounded=1;whiteSpace=wrap;html=1;fillColor=#75B3F9;gradientColor=none;strokeColor=none;fontSize=20;fontStyle=1;fontColor=#9da6b0;imageWidth=59;" parent="4QvC7mtdX6xe_Pmgo2VK-355" vertex="1">
          <mxGeometry x="167.29166666666669" y="578.7401574803149" width="254.73958333333337" height="66.14173228346456" as="geometry" />
        </mxCell>
        <mxCell id="4QvC7mtdX6xe_Pmgo2VK-384" value="&lt;font color=&quot;#ffffff&quot;&gt;3,4&lt;/font&gt;" style="rounded=1;whiteSpace=wrap;html=1;fillColor=#75B3F9;gradientColor=none;strokeColor=none;fontSize=20;fontStyle=1;fontColor=#9da6b0;" parent="4QvC7mtdX6xe_Pmgo2VK-355" vertex="1">
          <mxGeometry x="454.72916666666674" y="578.7401574803149" width="91.25000000000001" height="66.14173228346456" as="geometry" />
        </mxCell>
        <mxCell id="4QvC7mtdX6xe_Pmgo2VK-385" value="&lt;font color=&quot;#ffffff&quot;&gt;1&lt;/font&gt;" style="rounded=1;whiteSpace=wrap;html=1;fillColor=#75B3F9;gradientColor=none;strokeColor=none;fontSize=20;fontStyle=1;fontColor=#9da6b0;" parent="4QvC7mtdX6xe_Pmgo2VK-355" vertex="1">
          <mxGeometry x="576.3958333333334" y="578.7401574803149" width="91.25000000000001" height="66.14173228346456" as="geometry" />
        </mxCell>
        <mxCell id="4QvC7mtdX6xe_Pmgo2VK-386" value="Funcionalidad chat en tiempo real" style="rounded=1;whiteSpace=wrap;html=1;fillColor=#C7DBF4;strokeColor=none;gradientColor=none;fontSize=20;fontStyle=1;fontColor=#9da6b0;imageWidth=59;" parent="4QvC7mtdX6xe_Pmgo2VK-355" vertex="1">
          <mxGeometry x="172.61458333333334" y="1288.523622047244" width="254.73958333333337" height="66.14173228346456" as="geometry" />
        </mxCell>
        <mxCell id="4QvC7mtdX6xe_Pmgo2VK-387" value="11,12" style="rounded=1;whiteSpace=wrap;html=1;fillColor=#C7DBF4;strokeColor=none;gradientColor=none;fontSize=20;fontStyle=1;fontColor=#9da6b0;" parent="4QvC7mtdX6xe_Pmgo2VK-355" vertex="1">
          <mxGeometry x="460.0520833333334" y="1288.523622047244" width="91.25000000000001" height="66.14173228346456" as="geometry" />
        </mxCell>
        <mxCell id="4QvC7mtdX6xe_Pmgo2VK-388" value="4" style="rounded=1;whiteSpace=wrap;html=1;fillColor=#C7DBF4;strokeColor=none;gradientColor=none;fontSize=20;fontStyle=1;fontColor=#9da6b0;" parent="4QvC7mtdX6xe_Pmgo2VK-355" vertex="1">
          <mxGeometry x="581.71875" y="1288.523622047244" width="91.25000000000001" height="66.14173228346456" as="geometry" />
        </mxCell>
        <mxCell id="4QvC7mtdX6xe_Pmgo2VK-389" value="Funcionalidad calificacion de post" style="rounded=1;whiteSpace=wrap;html=1;fillColor=#C7DBF4;strokeColor=none;gradientColor=none;fontSize=20;fontStyle=1;fontColor=#9da6b0;imageWidth=59;" parent="4QvC7mtdX6xe_Pmgo2VK-355" vertex="1">
          <mxGeometry x="174.13541666666669" y="1380.708661417323" width="254.73958333333337" height="66.14173228346456" as="geometry" />
        </mxCell>
        <mxCell id="4QvC7mtdX6xe_Pmgo2VK-390" value="10" style="rounded=1;whiteSpace=wrap;html=1;fillColor=#C7DBF4;strokeColor=none;gradientColor=none;fontSize=20;fontStyle=1;fontColor=#9da6b0;" parent="4QvC7mtdX6xe_Pmgo2VK-355" vertex="1">
          <mxGeometry x="461.57291666666674" y="1380.708661417323" width="91.25000000000001" height="66.14173228346456" as="geometry" />
        </mxCell>
        <mxCell id="4QvC7mtdX6xe_Pmgo2VK-391" value="3" style="rounded=1;whiteSpace=wrap;html=1;fillColor=#C7DBF4;strokeColor=none;gradientColor=none;fontSize=20;fontStyle=1;fontColor=#9da6b0;" parent="4QvC7mtdX6xe_Pmgo2VK-355" vertex="1">
          <mxGeometry x="583.2395833333334" y="1380.708661417323" width="91.25000000000001" height="66.14173228346456" as="geometry" />
        </mxCell>
        <mxCell id="4QvC7mtdX6xe_Pmgo2VK-392" value="Crear eventos / pool" style="rounded=1;whiteSpace=wrap;html=1;fillColor=#DEE7F4;strokeColor=none;gradientColor=none;fontSize=20;fontStyle=1;fontColor=#9da6b0;imageWidth=59;" parent="4QvC7mtdX6xe_Pmgo2VK-355" vertex="1">
          <mxGeometry x="174.13541666666669" y="1661.811023622047" width="254.73958333333337" height="66.14173228346456" as="geometry" />
        </mxCell>
        <mxCell id="4QvC7mtdX6xe_Pmgo2VK-393" value="Programar notificaciones" style="rounded=1;whiteSpace=wrap;html=1;fillColor=#DEE7F4;strokeColor=none;gradientColor=none;fontSize=20;fontStyle=1;fontColor=#9da6b0;imageWidth=59;" parent="4QvC7mtdX6xe_Pmgo2VK-355" vertex="1">
          <mxGeometry x="174.13541666666669" y="1752.7559055118109" width="254.73958333333337" height="66.14173228346456" as="geometry" />
        </mxCell>
        <mxCell id="4QvC7mtdX6xe_Pmgo2VK-394" value="Registro de supervisor" style="rounded=1;whiteSpace=wrap;html=1;fillColor=#C7DBF4;strokeColor=none;gradientColor=none;fontSize=20;fontStyle=1;fontColor=#9da6b0;imageWidth=59;" parent="4QvC7mtdX6xe_Pmgo2VK-355" vertex="1">
          <mxGeometry x="172.61458333333334" y="1479.9212598425197" width="254.73958333333337" height="66.14173228346456" as="geometry" />
        </mxCell>
        <mxCell id="4QvC7mtdX6xe_Pmgo2VK-395" value="16" style="rounded=1;whiteSpace=wrap;html=1;fillColor=#DEE7F4;strokeColor=none;gradientColor=none;fontSize=20;fontStyle=1;fontColor=#9da6b0;" parent="4QvC7mtdX6xe_Pmgo2VK-355" vertex="1">
          <mxGeometry x="461.57291666666674" y="1661.811023622047" width="91.25000000000001" height="66.14173228346456" as="geometry" />
        </mxCell>
        <mxCell id="4QvC7mtdX6xe_Pmgo2VK-396" value="17" style="rounded=1;whiteSpace=wrap;html=1;fillColor=#DEE7F4;strokeColor=none;gradientColor=none;fontSize=20;fontStyle=1;fontColor=#9da6b0;" parent="4QvC7mtdX6xe_Pmgo2VK-355" vertex="1">
          <mxGeometry x="461.57291666666674" y="1752.7559055118109" width="91.25000000000001" height="66.14173228346456" as="geometry" />
        </mxCell>
        <mxCell id="4QvC7mtdX6xe_Pmgo2VK-397" value="13,14" style="rounded=1;whiteSpace=wrap;html=1;fillColor=#C7DBF4;strokeColor=none;gradientColor=none;fontSize=20;fontStyle=1;fontColor=#9da6b0;" parent="4QvC7mtdX6xe_Pmgo2VK-355" vertex="1">
          <mxGeometry x="460.0520833333334" y="1479.9212598425197" width="91.25000000000001" height="66.14173228346456" as="geometry" />
        </mxCell>
        <mxCell id="4QvC7mtdX6xe_Pmgo2VK-398" value="3" style="rounded=1;whiteSpace=wrap;html=1;fillColor=#DEE7F4;strokeColor=none;gradientColor=none;fontSize=20;fontStyle=1;fontColor=#9da6b0;" parent="4QvC7mtdX6xe_Pmgo2VK-355" vertex="1">
          <mxGeometry x="583.2395833333334" y="1661.811023622047" width="91.25000000000001" height="66.14173228346456" as="geometry" />
        </mxCell>
        <mxCell id="4QvC7mtdX6xe_Pmgo2VK-399" value="4" style="rounded=1;whiteSpace=wrap;html=1;fillColor=#DEE7F4;strokeColor=none;gradientColor=none;fontSize=20;fontStyle=1;fontColor=#9da6b0;" parent="4QvC7mtdX6xe_Pmgo2VK-355" vertex="1">
          <mxGeometry x="583.2395833333334" y="1752.7559055118109" width="91.25000000000001" height="66.14173228346456" as="geometry" />
        </mxCell>
        <mxCell id="4QvC7mtdX6xe_Pmgo2VK-400" value="1" style="rounded=1;whiteSpace=wrap;html=1;fillColor=#C7DBF4;strokeColor=none;gradientColor=none;fontSize=20;fontStyle=1;fontColor=#9da6b0;" parent="4QvC7mtdX6xe_Pmgo2VK-355" vertex="1">
          <mxGeometry x="581.71875" y="1479.9212598425197" width="91.25000000000001" height="66.14173228346456" as="geometry" />
        </mxCell>
        <mxCell id="4QvC7mtdX6xe_Pmgo2VK-401" value="Funcionalidad de supervisor" style="rounded=1;whiteSpace=wrap;html=1;fillColor=#C7DBF4;strokeColor=none;gradientColor=none;fontSize=20;fontStyle=1;fontColor=#9da6b0;imageWidth=59;" parent="4QvC7mtdX6xe_Pmgo2VK-355" vertex="1">
          <mxGeometry x="172.61458333333334" y="1579.1338582677165" width="254.73958333333337" height="66.14173228346456" as="geometry" />
        </mxCell>
        <mxCell id="4QvC7mtdX6xe_Pmgo2VK-402" value="15" style="rounded=1;whiteSpace=wrap;html=1;fillColor=#C7DBF4;strokeColor=none;gradientColor=none;fontSize=20;fontStyle=1;fontColor=#9da6b0;" parent="4QvC7mtdX6xe_Pmgo2VK-355" vertex="1">
          <mxGeometry x="460.0520833333334" y="1579.1338582677165" width="91.25000000000001" height="66.14173228346456" as="geometry" />
        </mxCell>
        <mxCell id="4QvC7mtdX6xe_Pmgo2VK-403" value="4" style="rounded=1;whiteSpace=wrap;html=1;fillColor=#C7DBF4;strokeColor=none;gradientColor=none;fontSize=20;fontStyle=1;fontColor=#9da6b0;" parent="4QvC7mtdX6xe_Pmgo2VK-355" vertex="1">
          <mxGeometry x="581.71875" y="1579.1338582677165" width="91.25000000000001" height="66.14173228346456" as="geometry" />
        </mxCell>
        <mxCell id="4QvC7mtdX6xe_Pmgo2VK-404" value="Verificacion final" style="rounded=1;whiteSpace=wrap;html=1;fillColor=#DEE7F4;strokeColor=none;gradientColor=none;fontSize=20;fontStyle=1;fontColor=#9da6b0;imageWidth=59;" parent="4QvC7mtdX6xe_Pmgo2VK-355" vertex="1">
          <mxGeometry x="174.13541666666669" y="1974.744094488189" width="254.73958333333337" height="66.14173228346456" as="geometry" />
        </mxCell>
        <mxCell id="4QvC7mtdX6xe_Pmgo2VK-405" value="19" style="rounded=1;whiteSpace=wrap;html=1;fillColor=#DEE7F4;strokeColor=none;gradientColor=none;fontSize=20;fontStyle=1;fontColor=#9da6b0;" parent="4QvC7mtdX6xe_Pmgo2VK-355" vertex="1">
          <mxGeometry x="461.57291666666674" y="1974.744094488189" width="91.25000000000001" height="66.14173228346456" as="geometry" />
        </mxCell>
        <mxCell id="4QvC7mtdX6xe_Pmgo2VK-406" value="4" style="rounded=1;whiteSpace=wrap;html=1;fillColor=#DEE7F4;strokeColor=none;gradientColor=none;fontSize=20;fontStyle=1;fontColor=#9da6b0;" parent="4QvC7mtdX6xe_Pmgo2VK-355" vertex="1">
          <mxGeometry x="583.2395833333334" y="1974.744094488189" width="91.25000000000001" height="66.14173228346456" as="geometry" />
        </mxCell>
        <mxCell id="4QvC7mtdX6xe_Pmgo2VK-407" value="Detectar y guardar votos" style="rounded=1;whiteSpace=wrap;html=1;fillColor=#DEE7F4;strokeColor=none;gradientColor=none;fontSize=20;fontStyle=1;fontColor=#9da6b0;imageWidth=59;" parent="4QvC7mtdX6xe_Pmgo2VK-355" vertex="1">
          <mxGeometry x="175.65625000000003" y="1860.236220472441" width="254.73958333333337" height="66.14173228346456" as="geometry" />
        </mxCell>
        <mxCell id="4QvC7mtdX6xe_Pmgo2VK-408" value="18" style="rounded=1;whiteSpace=wrap;html=1;fillColor=#DEE7F4;strokeColor=none;gradientColor=none;fontSize=20;fontStyle=1;fontColor=#9da6b0;" parent="4QvC7mtdX6xe_Pmgo2VK-355" vertex="1">
          <mxGeometry x="463.0937500000001" y="1860.236220472441" width="91.25000000000001" height="66.14173228346456" as="geometry" />
        </mxCell>
        <mxCell id="4QvC7mtdX6xe_Pmgo2VK-409" value="2" style="rounded=1;whiteSpace=wrap;html=1;fillColor=#DEE7F4;strokeColor=none;gradientColor=none;fontSize=20;fontStyle=1;fontColor=#9da6b0;" parent="4QvC7mtdX6xe_Pmgo2VK-355" vertex="1">
          <mxGeometry x="584.7604166666667" y="1860.236220472441" width="91.25000000000001" height="66.14173228346456" as="geometry" />
        </mxCell>
        <mxCell id="4QvC7mtdX6xe_Pmgo2VK-460" value="&lt;font style=&quot;color: light-dark(rgb(18, 18, 18), rgb(0, 0, 0));&quot;&gt;3,4&lt;/font&gt;" style="rounded=1;whiteSpace=wrap;html=1;fillColor=#75B3F9;gradientColor=none;strokeColor=none;fontSize=20;fontStyle=1;fontColor=#9da6b0;" parent="4QvC7mtdX6xe_Pmgo2VK-355" vertex="1">
          <mxGeometry x="454.73" y="479.53" width="91.25000000000001" height="66.14173228346456" as="geometry" />
        </mxCell>
        <mxCell id="4QvC7mtdX6xe_Pmgo2VK-410" value="Crear DB" style="rounded=1;whiteSpace=wrap;html=1;fillColor=#75b3f9;fontColor=#ffffff;strokeColor=none;gradientColor=none;fontSize=20;fontStyle=1;imageWidth=59;" parent="4QvC7mtdX6xe_Pmgo2VK-459" vertex="1">
          <mxGeometry x="165.77083333333334" y="83.91732283464567" width="254.73958333333337" height="66.14173228346456" as="geometry" />
        </mxCell>
        <mxCell id="4QvC7mtdX6xe_Pmgo2VK-411" value="" style="rounded=1;whiteSpace=wrap;html=1;fillColor=#75b3f9;fontColor=#ffffff;strokeColor=none;fontSize=20;fontStyle=1" parent="4QvC7mtdX6xe_Pmgo2VK-459" vertex="1">
          <mxGeometry x="453.2083333333334" y="83.91732283464567" width="91.25000000000001" height="66.14173228346456" as="geometry" />
        </mxCell>
        <mxCell id="4QvC7mtdX6xe_Pmgo2VK-412" value="" style="rounded=1;whiteSpace=wrap;html=1;fillColor=#75b3f9;fontColor=#ffffff;strokeColor=none;fontSize=20;fontStyle=1" parent="4QvC7mtdX6xe_Pmgo2VK-459" vertex="1">
          <mxGeometry x="574.875" y="83.91732283464567" width="91.25000000000001" height="66.14173228346456" as="geometry" />
        </mxCell>
        <mxCell id="4QvC7mtdX6xe_Pmgo2VK-413" value="" style="rounded=1;whiteSpace=wrap;html=1;fillColor=#75b3f9;fontColor=#ffffff;strokeColor=none;fontSize=20;fontStyle=1;imageWidth=59;" parent="4QvC7mtdX6xe_Pmgo2VK-459" vertex="1">
          <mxGeometry x="165.77083333333334" y="183.95669291338584" width="182.50000000000003" height="66.14173228346456" as="geometry" />
        </mxCell>
        <mxCell id="4QvC7mtdX6xe_Pmgo2VK-414" value="" style="rounded=1;whiteSpace=wrap;html=1;fillColor=#75b3f9;fontColor=#ffffff;strokeColor=none;fontSize=20;fontStyle=1" parent="4QvC7mtdX6xe_Pmgo2VK-459" vertex="1">
          <mxGeometry x="453.2083333333334" y="183.95669291338584" width="91.25000000000001" height="66.14173228346456" as="geometry" />
        </mxCell>
        <mxCell id="4QvC7mtdX6xe_Pmgo2VK-415" value="0,25" style="rounded=1;whiteSpace=wrap;html=1;fillColor=#75b3f9;fontColor=#ffffff;strokeColor=none;gradientColor=none;fontSize=20;fontStyle=1" parent="4QvC7mtdX6xe_Pmgo2VK-459" vertex="1">
          <mxGeometry x="574.875" y="183.95669291338584" width="91.25000000000001" height="66.14173228346456" as="geometry" />
        </mxCell>
        <mxCell id="4QvC7mtdX6xe_Pmgo2VK-416" value="Crear header" style="rounded=1;whiteSpace=wrap;html=1;fillColor=#75b3f9;fontColor=#ffffff;strokeColor=none;gradientColor=none;fontSize=20;fontStyle=1;imageWidth=59;" parent="4QvC7mtdX6xe_Pmgo2VK-459" vertex="1">
          <mxGeometry x="165.77083333333334" y="282.34251968503935" width="254.73958333333337" height="66.14173228346456" as="geometry" />
        </mxCell>
        <mxCell id="4QvC7mtdX6xe_Pmgo2VK-417" value="2" style="rounded=1;whiteSpace=wrap;html=1;fillColor=#75b3f9;fontColor=#ffffff;strokeColor=none;gradientColor=none;fontSize=20;fontStyle=1" parent="4QvC7mtdX6xe_Pmgo2VK-459" vertex="1">
          <mxGeometry x="453.2083333333334" y="282.34251968503935" width="91.25000000000001" height="66.14173228346456" as="geometry" />
        </mxCell>
        <mxCell id="4QvC7mtdX6xe_Pmgo2VK-418" value="2" style="rounded=1;whiteSpace=wrap;html=1;fillColor=#75b3f9;fontColor=#ffffff;strokeColor=none;gradientColor=none;fontSize=20;fontStyle=1" parent="4QvC7mtdX6xe_Pmgo2VK-459" vertex="1">
          <mxGeometry x="574.875" y="282.34251968503935" width="91.25000000000001" height="66.14173228346456" as="geometry" />
        </mxCell>
        <mxCell id="4QvC7mtdX6xe_Pmgo2VK-419" value="" style="rounded=1;whiteSpace=wrap;html=1;fillColor=#a3cbfb;fontColor=#ffffff;strokeColor=none;fontSize=20;fontStyle=1;gradientColor=none;imageWidth=59;" parent="4QvC7mtdX6xe_Pmgo2VK-459" vertex="1">
          <mxGeometry x="165.77083333333334" y="382.3818897637795" width="182.50000000000003" height="66.14173228346456" as="geometry" />
        </mxCell>
        <mxCell id="4QvC7mtdX6xe_Pmgo2VK-420" value="" style="rounded=1;whiteSpace=wrap;html=1;fillColor=#a3cbfb;fontColor=#ffffff;strokeColor=none;fontSize=20;fontStyle=1;gradientColor=none;" parent="4QvC7mtdX6xe_Pmgo2VK-459" vertex="1">
          <mxGeometry x="453.2083333333334" y="382.3818897637795" width="91.25000000000001" height="66.14173228346456" as="geometry" />
        </mxCell>
        <mxCell id="4QvC7mtdX6xe_Pmgo2VK-421" value="" style="rounded=1;whiteSpace=wrap;html=1;fillColor=#a3cbfb;fontColor=#ffffff;strokeColor=none;fontSize=20;fontStyle=1;gradientColor=none;" parent="4QvC7mtdX6xe_Pmgo2VK-459" vertex="1">
          <mxGeometry x="574.875" y="382.3818897637795" width="91.25000000000001" height="66.14173228346456" as="geometry" />
        </mxCell>
        <mxCell id="4QvC7mtdX6xe_Pmgo2VK-422" value="" style="rounded=1;whiteSpace=wrap;html=1;fillColor=#75b3f9;fontColor=#ffffff;strokeColor=none;gradientColor=none;fontSize=20;fontStyle=1" parent="4QvC7mtdX6xe_Pmgo2VK-459" vertex="1">
          <mxGeometry x="453.2083333333334" y="83.91732283464567" width="91.25000000000001" height="66.14173228346456" as="geometry" />
        </mxCell>
        <mxCell id="4QvC7mtdX6xe_Pmgo2VK-423" value="0,5" style="rounded=1;whiteSpace=wrap;html=1;fillColor=#75b3f9;fontColor=#ffffff;strokeColor=none;gradientColor=none;fontSize=20;fontStyle=1" parent="4QvC7mtdX6xe_Pmgo2VK-459" vertex="1">
          <mxGeometry x="574.875" y="83.91732283464567" width="91.25000000000001" height="66.14173228346456" as="geometry" />
        </mxCell>
        <mxCell id="4QvC7mtdX6xe_Pmgo2VK-424" value="Conectar DB" style="rounded=1;whiteSpace=wrap;html=1;fillColor=#75b3f9;fontColor=#ffffff;strokeColor=none;gradientColor=none;fontStyle=1;fontSize=20;imageWidth=59;" parent="4QvC7mtdX6xe_Pmgo2VK-459" vertex="1">
          <mxGeometry x="165.77083333333334" y="183.95669291338584" width="254.73958333333337" height="66.14173228346456" as="geometry" />
        </mxCell>
        <mxCell id="4QvC7mtdX6xe_Pmgo2VK-425" value="1" style="rounded=1;whiteSpace=wrap;html=1;fillColor=#75b3f9;fontColor=#ffffff;strokeColor=none;gradientColor=none;fontSize=20;fontStyle=1" parent="4QvC7mtdX6xe_Pmgo2VK-459" vertex="1">
          <mxGeometry x="453.2083333333334" y="183.95669291338584" width="91.25000000000001" height="66.14173228346456" as="geometry" />
        </mxCell>
        <mxCell id="4QvC7mtdX6xe_Pmgo2VK-426" value="Crear footer" style="rounded=1;whiteSpace=wrap;html=1;fillColor=#75B3F9;fontColor=#ffffff;strokeColor=none;gradientColor=none;fontSize=20;fontStyle=1;imageWidth=59;" parent="4QvC7mtdX6xe_Pmgo2VK-459" vertex="1">
          <mxGeometry x="165.77083333333334" y="382.3818897637795" width="254.73958333333337" height="66.14173228346456" as="geometry" />
        </mxCell>
        <mxCell id="4QvC7mtdX6xe_Pmgo2VK-427" value="2" style="rounded=1;whiteSpace=wrap;html=1;fillColor=#75B3F9;fontColor=#ffffff;strokeColor=none;gradientColor=none;fontSize=20;fontStyle=1" parent="4QvC7mtdX6xe_Pmgo2VK-459" vertex="1">
          <mxGeometry x="453.2083333333334" y="382.3818897637795" width="91.25000000000001" height="66.14173228346456" as="geometry" />
        </mxCell>
        <mxCell id="4QvC7mtdX6xe_Pmgo2VK-428" value="2" style="rounded=1;whiteSpace=wrap;html=1;fillColor=#75B3F9;fontColor=#ffffff;strokeColor=none;gradientColor=none;fontSize=20;fontStyle=1" parent="4QvC7mtdX6xe_Pmgo2VK-459" vertex="1">
          <mxGeometry x="574.875" y="382.3818897637795" width="91.25000000000001" height="66.14173228346456" as="geometry" />
        </mxCell>
        <mxCell id="4QvC7mtdX6xe_Pmgo2VK-435" value="&lt;font style=&quot;font-size: 22px;&quot;&gt;Número&lt;/font&gt;" style="text;html=1;align=center;verticalAlign=middle;resizable=0;points=[];autosize=1;strokeColor=none;fillColor=none;" parent="4QvC7mtdX6xe_Pmgo2VK-459" vertex="1">
          <mxGeometry x="47.90625000000001" y="31.83070866141732" width="100" height="40" as="geometry" />
        </mxCell>
        <mxCell id="4QvC7mtdX6xe_Pmgo2VK-436" value="&lt;font color=&quot;#ffffff&quot;&gt;5&lt;/font&gt;" style="rounded=1;whiteSpace=wrap;html=1;fillColor=#75B3F9;fontColor=#9da6b0;strokeColor=none;gradientColor=none;fontSize=20;fontStyle=1" parent="4QvC7mtdX6xe_Pmgo2VK-459" vertex="1">
          <mxGeometry x="44.864583333333336" y="480.35433070866145" width="91.25000000000001" height="66.14173228346456" as="geometry" />
        </mxCell>
        <mxCell id="4QvC7mtdX6xe_Pmgo2VK-437" value="" style="rounded=1;whiteSpace=wrap;html=1;fillColor=#A3CBFB;gradientColor=none;strokeColor=#6c8ebf;fontSize=20;fontStyle=1;fontColor=#9da6b0;" parent="4QvC7mtdX6xe_Pmgo2VK-459" vertex="1">
          <mxGeometry x="44.864583333333336" y="578.7401574803149" width="91.25000000000001" height="66.14173228346456" as="geometry" />
        </mxCell>
        <mxCell id="4QvC7mtdX6xe_Pmgo2VK-438" value="7" style="rounded=1;whiteSpace=wrap;html=1;fillColor=#A3CBFB;gradientColor=none;strokeColor=none;fontSize=20;fontStyle=1;fontColor=#9da6b0;" parent="4QvC7mtdX6xe_Pmgo2VK-459" vertex="1">
          <mxGeometry x="44.864583333333336" y="678.7795275590552" width="91.25000000000001" height="66.14173228346456" as="geometry" />
        </mxCell>
        <mxCell id="4QvC7mtdX6xe_Pmgo2VK-439" value="8" style="rounded=1;whiteSpace=wrap;html=1;fillColor=#A3CBFB;gradientColor=none;strokeColor=none;fontSize=20;fontStyle=1;fontColor=#9da6b0;" parent="4QvC7mtdX6xe_Pmgo2VK-459" vertex="1">
          <mxGeometry x="44.864583333333336" y="777.1653543307087" width="91.25000000000001" height="66.14173228346456" as="geometry" />
        </mxCell>
        <mxCell id="4QvC7mtdX6xe_Pmgo2VK-440" value="9" style="rounded=1;whiteSpace=wrap;html=1;fillColor=#A3CBFB;strokeColor=none;gradientColor=none;fontSize=20;fontStyle=1;fontColor=#9da6b0;" parent="4QvC7mtdX6xe_Pmgo2VK-459" vertex="1">
          <mxGeometry x="44.864583333333336" y="877.2047244094488" width="91.25000000000001" height="66.14173228346456" as="geometry" />
        </mxCell>
        <mxCell id="4QvC7mtdX6xe_Pmgo2VK-441" value="10" style="rounded=1;whiteSpace=wrap;html=1;fillColor=#A3CBFB;strokeColor=none;gradientColor=none;fontSize=20;fontStyle=1;fontColor=#9da6b0;" parent="4QvC7mtdX6xe_Pmgo2VK-459" vertex="1">
          <mxGeometry x="44.864583333333336" y="975.5905511811025" width="91.25000000000001" height="66.14173228346456" as="geometry" />
        </mxCell>
        <mxCell id="4QvC7mtdX6xe_Pmgo2VK-442" value="11" style="rounded=1;whiteSpace=wrap;html=1;fillColor=#A3CBFB;strokeColor=none;gradientColor=none;fontSize=20;fontStyle=1;fontColor=#9da6b0;" parent="4QvC7mtdX6xe_Pmgo2VK-459" vertex="1">
          <mxGeometry x="44.864583333333336" y="1075.6299212598424" width="91.25000000000001" height="66.14173228346456" as="geometry" />
        </mxCell>
        <mxCell id="4QvC7mtdX6xe_Pmgo2VK-443" value="12" style="rounded=1;whiteSpace=wrap;html=1;fillColor=#A3CBFB;strokeColor=none;gradientColor=none;fontSize=20;fontStyle=1;fontColor=#9da6b0;" parent="4QvC7mtdX6xe_Pmgo2VK-459" vertex="1">
          <mxGeometry x="44.864583333333336" y="1182.283464566929" width="91.25000000000001" height="66.14173228346456" as="geometry" />
        </mxCell>
        <mxCell id="4QvC7mtdX6xe_Pmgo2VK-444" value="&lt;font color=&quot;#ffffff&quot;&gt;6&lt;/font&gt;" style="rounded=1;whiteSpace=wrap;html=1;fillColor=#75B3F9;gradientColor=none;strokeColor=none;fontSize=20;fontStyle=1;fontColor=#9da6b0;" parent="4QvC7mtdX6xe_Pmgo2VK-459" vertex="1">
          <mxGeometry x="44.864583333333336" y="578.7401574803149" width="91.25000000000001" height="66.14173228346456" as="geometry" />
        </mxCell>
        <mxCell id="4QvC7mtdX6xe_Pmgo2VK-445" value="13" style="rounded=1;whiteSpace=wrap;html=1;fillColor=#C7DBF4;strokeColor=none;gradientColor=none;fontSize=20;fontStyle=1;fontColor=#9da6b0;" parent="4QvC7mtdX6xe_Pmgo2VK-459" vertex="1">
          <mxGeometry x="50.187500000000014" y="1288.523622047244" width="91.25000000000001" height="66.14173228346456" as="geometry" />
        </mxCell>
        <mxCell id="4QvC7mtdX6xe_Pmgo2VK-446" value="14" style="rounded=1;whiteSpace=wrap;html=1;fillColor=#C7DBF4;strokeColor=none;gradientColor=none;fontSize=20;fontStyle=1;fontColor=#9da6b0;" parent="4QvC7mtdX6xe_Pmgo2VK-459" vertex="1">
          <mxGeometry x="51.70833333333334" y="1380.708661417323" width="91.25000000000001" height="66.14173228346456" as="geometry" />
        </mxCell>
        <mxCell id="4QvC7mtdX6xe_Pmgo2VK-447" value="17" style="rounded=1;whiteSpace=wrap;html=1;fillColor=#DEE7F4;strokeColor=none;gradientColor=none;fontSize=20;fontStyle=1;fontColor=#9da6b0;" parent="4QvC7mtdX6xe_Pmgo2VK-459" vertex="1">
          <mxGeometry x="51.70833333333334" y="1661.811023622047" width="91.25000000000001" height="66.14173228346456" as="geometry" />
        </mxCell>
        <mxCell id="4QvC7mtdX6xe_Pmgo2VK-448" value="18" style="rounded=1;whiteSpace=wrap;html=1;fillColor=#DEE7F4;strokeColor=none;gradientColor=none;fontSize=20;fontStyle=1;fontColor=#9da6b0;" parent="4QvC7mtdX6xe_Pmgo2VK-459" vertex="1">
          <mxGeometry x="51.70833333333334" y="1752.7559055118109" width="91.25000000000001" height="66.14173228346456" as="geometry" />
        </mxCell>
        <mxCell id="4QvC7mtdX6xe_Pmgo2VK-449" value="15" style="rounded=1;whiteSpace=wrap;html=1;fillColor=#C7DBF4;strokeColor=none;gradientColor=none;fontSize=20;fontStyle=1;fontColor=#9da6b0;" parent="4QvC7mtdX6xe_Pmgo2VK-459" vertex="1">
          <mxGeometry x="50.187500000000014" y="1479.9212598425197" width="91.25000000000001" height="66.14173228346456" as="geometry" />
        </mxCell>
        <mxCell id="4QvC7mtdX6xe_Pmgo2VK-450" value="16" style="rounded=1;whiteSpace=wrap;html=1;fillColor=#C7DBF4;strokeColor=none;gradientColor=none;fontSize=20;fontStyle=1;fontColor=#9da6b0;" parent="4QvC7mtdX6xe_Pmgo2VK-459" vertex="1">
          <mxGeometry x="50.187500000000014" y="1579.1338582677165" width="91.25000000000001" height="66.14173228346456" as="geometry" />
        </mxCell>
        <mxCell id="4QvC7mtdX6xe_Pmgo2VK-451" value="20" style="rounded=1;whiteSpace=wrap;html=1;fillColor=#DEE7F4;strokeColor=none;gradientColor=none;fontSize=20;fontStyle=1;fontColor=#9da6b0;" parent="4QvC7mtdX6xe_Pmgo2VK-459" vertex="1">
          <mxGeometry x="51.70833333333334" y="1974.744094488189" width="91.25000000000001" height="66.14173228346456" as="geometry" />
        </mxCell>
        <mxCell id="4QvC7mtdX6xe_Pmgo2VK-452" value="19" style="rounded=1;whiteSpace=wrap;html=1;fillColor=#DEE7F4;strokeColor=none;gradientColor=none;fontSize=20;fontStyle=1;fontColor=#9da6b0;" parent="4QvC7mtdX6xe_Pmgo2VK-459" vertex="1">
          <mxGeometry x="53.22916666666668" y="1860.236220472441" width="91.25000000000001" height="66.14173228346456" as="geometry" />
        </mxCell>
        <mxCell id="4QvC7mtdX6xe_Pmgo2VK-453" value="" style="rounded=1;whiteSpace=wrap;html=1;fillColor=#75b3f9;fontColor=#ffffff;strokeColor=none;fontSize=20;fontStyle=1" parent="4QvC7mtdX6xe_Pmgo2VK-459" vertex="1">
          <mxGeometry x="43.34375000000001" y="83.91732283464567" width="91.25000000000001" height="66.14173228346456" as="geometry" />
        </mxCell>
        <mxCell id="4QvC7mtdX6xe_Pmgo2VK-454" value="2" style="rounded=1;whiteSpace=wrap;html=1;fillColor=#75b3f9;fontColor=#ffffff;strokeColor=none;gradientColor=none;fontSize=20;fontStyle=1" parent="4QvC7mtdX6xe_Pmgo2VK-459" vertex="1">
          <mxGeometry x="43.34375000000001" y="183.95669291338584" width="91.25000000000001" height="66.14173228346456" as="geometry" />
        </mxCell>
        <mxCell id="4QvC7mtdX6xe_Pmgo2VK-455" value="3" style="rounded=1;whiteSpace=wrap;html=1;fillColor=#75b3f9;fontColor=#ffffff;strokeColor=none;gradientColor=none;fontSize=20;fontStyle=1" parent="4QvC7mtdX6xe_Pmgo2VK-459" vertex="1">
          <mxGeometry x="43.34375000000001" y="282.34251968503935" width="91.25000000000001" height="66.14173228346456" as="geometry" />
        </mxCell>
        <mxCell id="4QvC7mtdX6xe_Pmgo2VK-456" value="" style="rounded=1;whiteSpace=wrap;html=1;fillColor=#a3cbfb;fontColor=#ffffff;strokeColor=none;fontSize=20;fontStyle=1;gradientColor=none;" parent="4QvC7mtdX6xe_Pmgo2VK-459" vertex="1">
          <mxGeometry x="43.34375000000001" y="382.3818897637795" width="91.25000000000001" height="66.14173228346456" as="geometry" />
        </mxCell>
        <mxCell id="4QvC7mtdX6xe_Pmgo2VK-457" value="1" style="rounded=1;whiteSpace=wrap;html=1;fillColor=#75b3f9;fontColor=#ffffff;strokeColor=none;gradientColor=none;fontSize=20;fontStyle=1" parent="4QvC7mtdX6xe_Pmgo2VK-459" vertex="1">
          <mxGeometry x="43.34375000000001" y="83.91732283464567" width="91.25000000000001" height="66.14173228346456" as="geometry" />
        </mxCell>
        <mxCell id="4QvC7mtdX6xe_Pmgo2VK-458" value="4" style="rounded=1;whiteSpace=wrap;html=1;fillColor=#75B3F9;fontColor=#ffffff;strokeColor=none;gradientColor=none;fontSize=20;fontStyle=1" parent="4QvC7mtdX6xe_Pmgo2VK-459" vertex="1">
          <mxGeometry x="43.34375000000001" y="382.3818897637795" width="91.25000000000001" height="66.14173228346456" as="geometry" />
        </mxCell>
        <mxCell id="4QvC7mtdX6xe_Pmgo2VK-461" value="" style="group" parent="1" vertex="1" connectable="0">
          <mxGeometry x="1040" y="500" width="110" height="170" as="geometry" />
        </mxCell>
        <mxCell id="4QvC7mtdX6xe_Pmgo2VK-462" value="Inicio" style="ellipse;whiteSpace=wrap;html=1;aspect=fixed;fillColor=#FF6666;" parent="4QvC7mtdX6xe_Pmgo2VK-461" vertex="1">
          <mxGeometry x="10" width="80" height="80" as="geometry" />
        </mxCell>
        <mxCell id="4QvC7mtdX6xe_Pmgo2VK-463" value="" style="endArrow=none;html=1;rounded=0;" parent="4QvC7mtdX6xe_Pmgo2VK-461" edge="1">
          <mxGeometry width="50" height="50" relative="1" as="geometry">
            <mxPoint x="55" y="170" as="sourcePoint" />
            <mxPoint x="55" y="100" as="targetPoint" />
          </mxGeometry>
        </mxCell>
        <mxCell id="4QvC7mtdX6xe_Pmgo2VK-464" value="" style="endArrow=none;html=1;rounded=0;" parent="4QvC7mtdX6xe_Pmgo2VK-461" edge="1">
          <mxGeometry width="50" height="50" relative="1" as="geometry">
            <mxPoint x="25" y="130" as="sourcePoint" />
            <mxPoint x="95" y="130" as="targetPoint" />
          </mxGeometry>
        </mxCell>
        <mxCell id="4QvC7mtdX6xe_Pmgo2VK-465" value="0" style="text;html=1;align=center;verticalAlign=middle;resizable=0;points=[];autosize=1;strokeColor=none;fillColor=none;" parent="4QvC7mtdX6xe_Pmgo2VK-461" vertex="1">
          <mxGeometry x="10" y="98" width="30" height="30" as="geometry" />
        </mxCell>
        <mxCell id="4QvC7mtdX6xe_Pmgo2VK-466" value="0" style="text;html=1;align=center;verticalAlign=middle;resizable=0;points=[];autosize=1;strokeColor=none;fillColor=none;" parent="4QvC7mtdX6xe_Pmgo2VK-461" vertex="1">
          <mxGeometry x="60" y="98" width="30" height="30" as="geometry" />
        </mxCell>
        <mxCell id="4QvC7mtdX6xe_Pmgo2VK-467" value="0" style="text;html=1;align=center;verticalAlign=middle;resizable=0;points=[];autosize=1;strokeColor=none;fillColor=none;" parent="4QvC7mtdX6xe_Pmgo2VK-461" vertex="1">
          <mxGeometry x="20" y="138" width="30" height="30" as="geometry" />
        </mxCell>
        <mxCell id="4QvC7mtdX6xe_Pmgo2VK-468" value="0" style="text;html=1;align=center;verticalAlign=middle;resizable=0;points=[];autosize=1;strokeColor=none;fillColor=none;" parent="4QvC7mtdX6xe_Pmgo2VK-461" vertex="1">
          <mxGeometry x="70" y="138" width="30" height="30" as="geometry" />
        </mxCell>
        <mxCell id="4QvC7mtdX6xe_Pmgo2VK-469" value="0" style="ellipse;whiteSpace=wrap;html=1;aspect=fixed;" parent="4QvC7mtdX6xe_Pmgo2VK-461" vertex="1">
          <mxGeometry x="40" y="50" width="20" height="20" as="geometry" />
        </mxCell>
        <mxCell id="4QvC7mtdX6xe_Pmgo2VK-471" value="" style="group" parent="1" vertex="1" connectable="0">
          <mxGeometry x="1250" y="500" width="110" height="170" as="geometry" />
        </mxCell>
        <mxCell id="4QvC7mtdX6xe_Pmgo2VK-472" value="1" style="ellipse;whiteSpace=wrap;html=1;aspect=fixed;fillColor=#FF3333;" parent="4QvC7mtdX6xe_Pmgo2VK-471" vertex="1">
          <mxGeometry x="10" width="80" height="80" as="geometry" />
        </mxCell>
        <mxCell id="4QvC7mtdX6xe_Pmgo2VK-473" value="" style="endArrow=none;html=1;rounded=0;" parent="4QvC7mtdX6xe_Pmgo2VK-471" edge="1">
          <mxGeometry width="50" height="50" relative="1" as="geometry">
            <mxPoint x="55" y="170" as="sourcePoint" />
            <mxPoint x="55" y="100" as="targetPoint" />
          </mxGeometry>
        </mxCell>
        <mxCell id="4QvC7mtdX6xe_Pmgo2VK-474" value="" style="endArrow=none;html=1;rounded=0;" parent="4QvC7mtdX6xe_Pmgo2VK-471" edge="1">
          <mxGeometry width="50" height="50" relative="1" as="geometry">
            <mxPoint x="25" y="130" as="sourcePoint" />
            <mxPoint x="95" y="130" as="targetPoint" />
          </mxGeometry>
        </mxCell>
        <mxCell id="4QvC7mtdX6xe_Pmgo2VK-475" value="0" style="text;html=1;align=center;verticalAlign=middle;resizable=0;points=[];autosize=1;strokeColor=none;fillColor=none;" parent="4QvC7mtdX6xe_Pmgo2VK-471" vertex="1">
          <mxGeometry x="10" y="98" width="30" height="30" as="geometry" />
        </mxCell>
        <mxCell id="4QvC7mtdX6xe_Pmgo2VK-476" value="0,5" style="text;html=1;align=center;verticalAlign=middle;resizable=0;points=[];autosize=1;strokeColor=none;fillColor=none;" parent="4QvC7mtdX6xe_Pmgo2VK-471" vertex="1">
          <mxGeometry x="55" y="98" width="40" height="30" as="geometry" />
        </mxCell>
        <mxCell id="4QvC7mtdX6xe_Pmgo2VK-477" value="0" style="text;html=1;align=center;verticalAlign=middle;resizable=0;points=[];autosize=1;strokeColor=none;fillColor=none;" parent="4QvC7mtdX6xe_Pmgo2VK-471" vertex="1">
          <mxGeometry x="20" y="138" width="30" height="30" as="geometry" />
        </mxCell>
        <mxCell id="4QvC7mtdX6xe_Pmgo2VK-478" value="0,5" style="text;html=1;align=center;verticalAlign=middle;resizable=0;points=[];autosize=1;strokeColor=none;fillColor=none;" parent="4QvC7mtdX6xe_Pmgo2VK-471" vertex="1">
          <mxGeometry x="65" y="138" width="40" height="30" as="geometry" />
        </mxCell>
        <mxCell id="4QvC7mtdX6xe_Pmgo2VK-479" value="0,5" style="ellipse;whiteSpace=wrap;html=1;aspect=fixed;" parent="4QvC7mtdX6xe_Pmgo2VK-471" vertex="1">
          <mxGeometry x="40" y="50" width="20" height="20" as="geometry" />
        </mxCell>
        <mxCell id="4QvC7mtdX6xe_Pmgo2VK-480" value="" style="group" parent="1" vertex="1" connectable="0">
          <mxGeometry x="1420" y="500" width="110" height="170" as="geometry" />
        </mxCell>
        <mxCell id="4QvC7mtdX6xe_Pmgo2VK-481" value="2" style="ellipse;whiteSpace=wrap;html=1;aspect=fixed;fillColor=#FF3333;" parent="4QvC7mtdX6xe_Pmgo2VK-480" vertex="1">
          <mxGeometry x="10" width="80" height="80" as="geometry" />
        </mxCell>
        <mxCell id="4QvC7mtdX6xe_Pmgo2VK-482" value="" style="endArrow=none;html=1;rounded=0;" parent="4QvC7mtdX6xe_Pmgo2VK-480" edge="1">
          <mxGeometry width="50" height="50" relative="1" as="geometry">
            <mxPoint x="55" y="170" as="sourcePoint" />
            <mxPoint x="55" y="100" as="targetPoint" />
          </mxGeometry>
        </mxCell>
        <mxCell id="4QvC7mtdX6xe_Pmgo2VK-483" value="" style="endArrow=none;html=1;rounded=0;" parent="4QvC7mtdX6xe_Pmgo2VK-480" edge="1">
          <mxGeometry width="50" height="50" relative="1" as="geometry">
            <mxPoint x="25" y="130" as="sourcePoint" />
            <mxPoint x="95" y="130" as="targetPoint" />
          </mxGeometry>
        </mxCell>
        <mxCell id="4QvC7mtdX6xe_Pmgo2VK-484" value="0,5" style="text;html=1;align=center;verticalAlign=middle;resizable=0;points=[];autosize=1;strokeColor=none;fillColor=none;" parent="4QvC7mtdX6xe_Pmgo2VK-480" vertex="1">
          <mxGeometry x="5" y="98" width="40" height="30" as="geometry" />
        </mxCell>
        <mxCell id="4QvC7mtdX6xe_Pmgo2VK-485" value="0,75" style="text;html=1;align=center;verticalAlign=middle;resizable=0;points=[];autosize=1;strokeColor=none;fillColor=none;" parent="4QvC7mtdX6xe_Pmgo2VK-480" vertex="1">
          <mxGeometry x="50" y="98" width="50" height="30" as="geometry" />
        </mxCell>
        <mxCell id="4QvC7mtdX6xe_Pmgo2VK-486" value="0,5" style="text;html=1;align=center;verticalAlign=middle;resizable=0;points=[];autosize=1;strokeColor=none;fillColor=none;" parent="4QvC7mtdX6xe_Pmgo2VK-480" vertex="1">
          <mxGeometry x="15" y="138" width="40" height="30" as="geometry" />
        </mxCell>
        <mxCell id="4QvC7mtdX6xe_Pmgo2VK-487" value="0,75" style="text;html=1;align=center;verticalAlign=middle;resizable=0;points=[];autosize=1;strokeColor=none;fillColor=none;" parent="4QvC7mtdX6xe_Pmgo2VK-480" vertex="1">
          <mxGeometry x="60" y="138" width="50" height="30" as="geometry" />
        </mxCell>
        <mxCell id="4QvC7mtdX6xe_Pmgo2VK-488" value="0,25" style="ellipse;whiteSpace=wrap;html=1;aspect=fixed;" parent="4QvC7mtdX6xe_Pmgo2VK-480" vertex="1">
          <mxGeometry x="40" y="50" width="30" height="30" as="geometry" />
        </mxCell>
        <mxCell id="4QvC7mtdX6xe_Pmgo2VK-489" value="" style="group" parent="1" vertex="1" connectable="0">
          <mxGeometry x="1570" y="680" width="110" height="170" as="geometry" />
        </mxCell>
        <mxCell id="4QvC7mtdX6xe_Pmgo2VK-490" value="4" style="ellipse;whiteSpace=wrap;html=1;aspect=fixed;fillColor=#FF3333;" parent="4QvC7mtdX6xe_Pmgo2VK-489" vertex="1">
          <mxGeometry x="10" width="80" height="80" as="geometry" />
        </mxCell>
        <mxCell id="4QvC7mtdX6xe_Pmgo2VK-491" value="" style="endArrow=none;html=1;rounded=0;" parent="4QvC7mtdX6xe_Pmgo2VK-489" edge="1">
          <mxGeometry width="50" height="50" relative="1" as="geometry">
            <mxPoint x="55" y="170" as="sourcePoint" />
            <mxPoint x="55" y="100" as="targetPoint" />
          </mxGeometry>
        </mxCell>
        <mxCell id="4QvC7mtdX6xe_Pmgo2VK-492" value="" style="endArrow=none;html=1;rounded=0;" parent="4QvC7mtdX6xe_Pmgo2VK-489" edge="1">
          <mxGeometry width="50" height="50" relative="1" as="geometry">
            <mxPoint x="25" y="130" as="sourcePoint" />
            <mxPoint x="95" y="130" as="targetPoint" />
          </mxGeometry>
        </mxCell>
        <mxCell id="4QvC7mtdX6xe_Pmgo2VK-493" value="0,75" style="text;html=1;align=center;verticalAlign=middle;resizable=0;points=[];autosize=1;strokeColor=none;fillColor=none;" parent="4QvC7mtdX6xe_Pmgo2VK-489" vertex="1">
          <mxGeometry y="98" width="50" height="30" as="geometry" />
        </mxCell>
        <mxCell id="4QvC7mtdX6xe_Pmgo2VK-494" value="2,75" style="text;html=1;align=center;verticalAlign=middle;resizable=0;points=[];autosize=1;strokeColor=none;fillColor=none;" parent="4QvC7mtdX6xe_Pmgo2VK-489" vertex="1">
          <mxGeometry x="50" y="98" width="50" height="30" as="geometry" />
        </mxCell>
        <mxCell id="4QvC7mtdX6xe_Pmgo2VK-495" value="0,75" style="text;html=1;align=center;verticalAlign=middle;resizable=0;points=[];autosize=1;strokeColor=none;fillColor=none;" parent="4QvC7mtdX6xe_Pmgo2VK-489" vertex="1">
          <mxGeometry x="10" y="138" width="50" height="30" as="geometry" />
        </mxCell>
        <mxCell id="4QvC7mtdX6xe_Pmgo2VK-496" value="2,75" style="text;html=1;align=center;verticalAlign=middle;resizable=0;points=[];autosize=1;strokeColor=none;fillColor=none;" parent="4QvC7mtdX6xe_Pmgo2VK-489" vertex="1">
          <mxGeometry x="60" y="138" width="50" height="30" as="geometry" />
        </mxCell>
        <mxCell id="4QvC7mtdX6xe_Pmgo2VK-497" value="2" style="ellipse;whiteSpace=wrap;html=1;aspect=fixed;" parent="4QvC7mtdX6xe_Pmgo2VK-489" vertex="1">
          <mxGeometry x="40" y="50" width="20" height="20" as="geometry" />
        </mxCell>
        <mxCell id="4QvC7mtdX6xe_Pmgo2VK-498" value="" style="group" parent="1" vertex="1" connectable="0">
          <mxGeometry x="1660" y="520" width="110" height="170" as="geometry" />
        </mxCell>
        <mxCell id="4QvC7mtdX6xe_Pmgo2VK-499" value="5" style="ellipse;whiteSpace=wrap;html=1;aspect=fixed;fillColor=#FF3333;" parent="4QvC7mtdX6xe_Pmgo2VK-498" vertex="1">
          <mxGeometry x="10" width="80" height="80" as="geometry" />
        </mxCell>
        <mxCell id="4QvC7mtdX6xe_Pmgo2VK-500" value="" style="endArrow=none;html=1;rounded=0;" parent="4QvC7mtdX6xe_Pmgo2VK-498" edge="1">
          <mxGeometry width="50" height="50" relative="1" as="geometry">
            <mxPoint x="22" y="165" as="sourcePoint" />
            <mxPoint x="22" y="95" as="targetPoint" />
          </mxGeometry>
        </mxCell>
        <mxCell id="4QvC7mtdX6xe_Pmgo2VK-501" value="" style="endArrow=none;html=1;rounded=0;" parent="4QvC7mtdX6xe_Pmgo2VK-498" edge="1">
          <mxGeometry width="50" height="50" relative="1" as="geometry">
            <mxPoint x="-8" y="125" as="sourcePoint" />
            <mxPoint x="62" y="125" as="targetPoint" />
          </mxGeometry>
        </mxCell>
        <mxCell id="4QvC7mtdX6xe_Pmgo2VK-502" value="2,75" style="text;html=1;align=center;verticalAlign=middle;resizable=0;points=[];autosize=1;strokeColor=none;fillColor=none;" parent="4QvC7mtdX6xe_Pmgo2VK-498" vertex="1">
          <mxGeometry x="-33" y="93" width="50" height="30" as="geometry" />
        </mxCell>
        <mxCell id="4QvC7mtdX6xe_Pmgo2VK-503" value="5,75" style="text;html=1;align=center;verticalAlign=middle;resizable=0;points=[];autosize=1;strokeColor=none;fillColor=none;" parent="4QvC7mtdX6xe_Pmgo2VK-498" vertex="1">
          <mxGeometry x="17" y="93" width="50" height="30" as="geometry" />
        </mxCell>
        <mxCell id="4QvC7mtdX6xe_Pmgo2VK-504" value="2,75" style="text;html=1;align=center;verticalAlign=middle;resizable=0;points=[];autosize=1;strokeColor=none;fillColor=none;" parent="4QvC7mtdX6xe_Pmgo2VK-498" vertex="1">
          <mxGeometry x="-23" y="133" width="50" height="30" as="geometry" />
        </mxCell>
        <mxCell id="4QvC7mtdX6xe_Pmgo2VK-505" value="5,75" style="text;html=1;align=center;verticalAlign=middle;resizable=0;points=[];autosize=1;strokeColor=none;fillColor=none;" parent="4QvC7mtdX6xe_Pmgo2VK-498" vertex="1">
          <mxGeometry x="27" y="133" width="50" height="30" as="geometry" />
        </mxCell>
        <mxCell id="4QvC7mtdX6xe_Pmgo2VK-506" value="3" style="ellipse;whiteSpace=wrap;html=1;aspect=fixed;" parent="4QvC7mtdX6xe_Pmgo2VK-498" vertex="1">
          <mxGeometry x="40" y="50" width="20" height="20" as="geometry" />
        </mxCell>
        <mxCell id="4QvC7mtdX6xe_Pmgo2VK-507" value="" style="group" parent="1" vertex="1" connectable="0">
          <mxGeometry x="1580" y="310" width="110" height="170" as="geometry" />
        </mxCell>
        <mxCell id="4QvC7mtdX6xe_Pmgo2VK-508" value="3" style="ellipse;whiteSpace=wrap;html=1;aspect=fixed;fillColor=#FF3333;" parent="4QvC7mtdX6xe_Pmgo2VK-507" vertex="1">
          <mxGeometry x="10" width="80" height="80" as="geometry" />
        </mxCell>
        <mxCell id="4QvC7mtdX6xe_Pmgo2VK-509" value="" style="endArrow=none;html=1;rounded=0;" parent="4QvC7mtdX6xe_Pmgo2VK-507" edge="1">
          <mxGeometry width="50" height="50" relative="1" as="geometry">
            <mxPoint x="55" y="170" as="sourcePoint" />
            <mxPoint x="55" y="100" as="targetPoint" />
          </mxGeometry>
        </mxCell>
        <mxCell id="4QvC7mtdX6xe_Pmgo2VK-510" value="" style="endArrow=none;html=1;rounded=0;" parent="4QvC7mtdX6xe_Pmgo2VK-507" edge="1">
          <mxGeometry width="50" height="50" relative="1" as="geometry">
            <mxPoint x="25" y="130" as="sourcePoint" />
            <mxPoint x="95" y="130" as="targetPoint" />
          </mxGeometry>
        </mxCell>
        <mxCell id="4QvC7mtdX6xe_Pmgo2VK-511" value="0,75" style="text;html=1;align=center;verticalAlign=middle;resizable=0;points=[];autosize=1;strokeColor=none;fillColor=none;" parent="4QvC7mtdX6xe_Pmgo2VK-507" vertex="1">
          <mxGeometry y="98" width="50" height="30" as="geometry" />
        </mxCell>
        <mxCell id="4QvC7mtdX6xe_Pmgo2VK-512" value="2,75" style="text;html=1;align=center;verticalAlign=middle;resizable=0;points=[];autosize=1;strokeColor=none;fillColor=none;" parent="4QvC7mtdX6xe_Pmgo2VK-507" vertex="1">
          <mxGeometry x="50" y="98" width="50" height="30" as="geometry" />
        </mxCell>
        <mxCell id="4QvC7mtdX6xe_Pmgo2VK-513" value="0,75" style="text;html=1;align=center;verticalAlign=middle;resizable=0;points=[];autosize=1;strokeColor=none;fillColor=none;" parent="4QvC7mtdX6xe_Pmgo2VK-507" vertex="1">
          <mxGeometry x="7" y="139" width="50" height="30" as="geometry" />
        </mxCell>
        <mxCell id="4QvC7mtdX6xe_Pmgo2VK-514" value="2,75" style="text;html=1;align=center;verticalAlign=middle;resizable=0;points=[];autosize=1;strokeColor=none;fillColor=none;" parent="4QvC7mtdX6xe_Pmgo2VK-507" vertex="1">
          <mxGeometry x="60" y="138" width="50" height="30" as="geometry" />
        </mxCell>
        <mxCell id="4QvC7mtdX6xe_Pmgo2VK-515" value="2" style="ellipse;whiteSpace=wrap;html=1;aspect=fixed;" parent="4QvC7mtdX6xe_Pmgo2VK-507" vertex="1">
          <mxGeometry x="40" y="50" width="20" height="20" as="geometry" />
        </mxCell>
        <mxCell id="4QvC7mtdX6xe_Pmgo2VK-518" value="" style="group" parent="1" vertex="1" connectable="0">
          <mxGeometry x="1900" y="660" width="110" height="170" as="geometry" />
        </mxCell>
        <mxCell id="4QvC7mtdX6xe_Pmgo2VK-519" value="6" style="ellipse;whiteSpace=wrap;html=1;aspect=fixed;" parent="4QvC7mtdX6xe_Pmgo2VK-518" vertex="1">
          <mxGeometry x="10" width="80" height="80" as="geometry" />
        </mxCell>
        <mxCell id="4QvC7mtdX6xe_Pmgo2VK-520" value="" style="endArrow=none;html=1;rounded=0;" parent="4QvC7mtdX6xe_Pmgo2VK-518" edge="1">
          <mxGeometry width="50" height="50" relative="1" as="geometry">
            <mxPoint x="55" y="170" as="sourcePoint" />
            <mxPoint x="55" y="100" as="targetPoint" />
          </mxGeometry>
        </mxCell>
        <mxCell id="4QvC7mtdX6xe_Pmgo2VK-521" value="" style="endArrow=none;html=1;rounded=0;" parent="4QvC7mtdX6xe_Pmgo2VK-518" edge="1">
          <mxGeometry width="50" height="50" relative="1" as="geometry">
            <mxPoint x="25" y="130" as="sourcePoint" />
            <mxPoint x="95" y="130" as="targetPoint" />
          </mxGeometry>
        </mxCell>
        <mxCell id="4QvC7mtdX6xe_Pmgo2VK-522" value="2,75" style="text;html=1;align=center;verticalAlign=middle;resizable=0;points=[];autosize=1;strokeColor=none;fillColor=none;" parent="4QvC7mtdX6xe_Pmgo2VK-518" vertex="1">
          <mxGeometry y="98" width="50" height="30" as="geometry" />
        </mxCell>
        <mxCell id="4QvC7mtdX6xe_Pmgo2VK-523" value="3,75" style="text;html=1;align=center;verticalAlign=middle;resizable=0;points=[];autosize=1;strokeColor=none;fillColor=none;" parent="4QvC7mtdX6xe_Pmgo2VK-518" vertex="1">
          <mxGeometry x="50" y="98" width="50" height="30" as="geometry" />
        </mxCell>
        <mxCell id="4QvC7mtdX6xe_Pmgo2VK-524" value="4,75" style="text;html=1;align=center;verticalAlign=middle;resizable=0;points=[];autosize=1;strokeColor=none;fillColor=none;" parent="4QvC7mtdX6xe_Pmgo2VK-518" vertex="1">
          <mxGeometry x="10" y="138" width="50" height="30" as="geometry" />
        </mxCell>
        <mxCell id="4QvC7mtdX6xe_Pmgo2VK-525" value="5,75" style="text;html=1;align=center;verticalAlign=middle;resizable=0;points=[];autosize=1;strokeColor=none;fillColor=none;" parent="4QvC7mtdX6xe_Pmgo2VK-518" vertex="1">
          <mxGeometry x="60" y="138" width="50" height="30" as="geometry" />
        </mxCell>
        <mxCell id="4QvC7mtdX6xe_Pmgo2VK-526" value="1" style="ellipse;whiteSpace=wrap;html=1;aspect=fixed;" parent="4QvC7mtdX6xe_Pmgo2VK-518" vertex="1">
          <mxGeometry x="40" y="50" width="20" height="20" as="geometry" />
        </mxCell>
        <mxCell id="4QvC7mtdX6xe_Pmgo2VK-527" value="" style="group" parent="1" vertex="1" connectable="0">
          <mxGeometry x="1960" y="100" width="110" height="170" as="geometry" />
        </mxCell>
        <mxCell id="4QvC7mtdX6xe_Pmgo2VK-528" value="8" style="ellipse;whiteSpace=wrap;html=1;aspect=fixed;" parent="4QvC7mtdX6xe_Pmgo2VK-527" vertex="1">
          <mxGeometry x="10" width="80" height="80" as="geometry" />
        </mxCell>
        <mxCell id="4QvC7mtdX6xe_Pmgo2VK-529" value="" style="endArrow=none;html=1;rounded=0;" parent="4QvC7mtdX6xe_Pmgo2VK-527" edge="1">
          <mxGeometry width="50" height="50" relative="1" as="geometry">
            <mxPoint x="55" y="170" as="sourcePoint" />
            <mxPoint x="55" y="100" as="targetPoint" />
          </mxGeometry>
        </mxCell>
        <mxCell id="4QvC7mtdX6xe_Pmgo2VK-530" value="" style="endArrow=none;html=1;rounded=0;" parent="4QvC7mtdX6xe_Pmgo2VK-527" edge="1">
          <mxGeometry width="50" height="50" relative="1" as="geometry">
            <mxPoint x="25" y="130" as="sourcePoint" />
            <mxPoint x="95" y="130" as="targetPoint" />
          </mxGeometry>
        </mxCell>
        <mxCell id="4QvC7mtdX6xe_Pmgo2VK-531" value="5,75" style="text;html=1;align=center;verticalAlign=middle;resizable=0;points=[];autosize=1;strokeColor=none;fillColor=none;" parent="4QvC7mtdX6xe_Pmgo2VK-527" vertex="1">
          <mxGeometry y="98" width="50" height="30" as="geometry" />
        </mxCell>
        <mxCell id="4QvC7mtdX6xe_Pmgo2VK-532" value="6,75" style="text;html=1;align=center;verticalAlign=middle;resizable=0;points=[];autosize=1;strokeColor=none;fillColor=none;" parent="4QvC7mtdX6xe_Pmgo2VK-527" vertex="1">
          <mxGeometry x="50" y="98" width="50" height="30" as="geometry" />
        </mxCell>
        <mxCell id="4QvC7mtdX6xe_Pmgo2VK-533" value="26,75" style="text;html=1;align=center;verticalAlign=middle;resizable=0;points=[];autosize=1;strokeColor=none;fillColor=none;" parent="4QvC7mtdX6xe_Pmgo2VK-527" vertex="1">
          <mxGeometry x="10" y="138" width="50" height="30" as="geometry" />
        </mxCell>
        <mxCell id="4QvC7mtdX6xe_Pmgo2VK-534" value="27,75" style="text;html=1;align=center;verticalAlign=middle;resizable=0;points=[];autosize=1;strokeColor=none;fillColor=none;" parent="4QvC7mtdX6xe_Pmgo2VK-527" vertex="1">
          <mxGeometry x="60" y="138" width="50" height="30" as="geometry" />
        </mxCell>
        <mxCell id="4QvC7mtdX6xe_Pmgo2VK-535" value="1" style="ellipse;whiteSpace=wrap;html=1;aspect=fixed;" parent="4QvC7mtdX6xe_Pmgo2VK-527" vertex="1">
          <mxGeometry x="40" y="50" width="20" height="20" as="geometry" />
        </mxCell>
        <mxCell id="4QvC7mtdX6xe_Pmgo2VK-536" value="" style="group" parent="1" vertex="1" connectable="0">
          <mxGeometry x="1790" y="90" width="110" height="170" as="geometry" />
        </mxCell>
        <mxCell id="4QvC7mtdX6xe_Pmgo2VK-537" value="7" style="ellipse;whiteSpace=wrap;html=1;aspect=fixed;" parent="4QvC7mtdX6xe_Pmgo2VK-536" vertex="1">
          <mxGeometry x="10" width="80" height="80" as="geometry" />
        </mxCell>
        <mxCell id="4QvC7mtdX6xe_Pmgo2VK-538" value="" style="endArrow=none;html=1;rounded=0;" parent="4QvC7mtdX6xe_Pmgo2VK-536" edge="1">
          <mxGeometry width="50" height="50" relative="1" as="geometry">
            <mxPoint x="55" y="170" as="sourcePoint" />
            <mxPoint x="55" y="100" as="targetPoint" />
          </mxGeometry>
        </mxCell>
        <mxCell id="4QvC7mtdX6xe_Pmgo2VK-539" value="" style="endArrow=none;html=1;rounded=0;" parent="4QvC7mtdX6xe_Pmgo2VK-536" edge="1">
          <mxGeometry width="50" height="50" relative="1" as="geometry">
            <mxPoint x="25" y="130" as="sourcePoint" />
            <mxPoint x="95" y="130" as="targetPoint" />
          </mxGeometry>
        </mxCell>
        <mxCell id="4QvC7mtdX6xe_Pmgo2VK-540" value="5,75" style="text;html=1;align=center;verticalAlign=middle;resizable=0;points=[];autosize=1;strokeColor=none;fillColor=none;" parent="4QvC7mtdX6xe_Pmgo2VK-536" vertex="1">
          <mxGeometry y="98" width="50" height="30" as="geometry" />
        </mxCell>
        <mxCell id="4QvC7mtdX6xe_Pmgo2VK-541" value="9,75" style="text;html=1;align=center;verticalAlign=middle;resizable=0;points=[];autosize=1;strokeColor=none;fillColor=none;" parent="4QvC7mtdX6xe_Pmgo2VK-536" vertex="1">
          <mxGeometry x="50" y="98" width="50" height="30" as="geometry" />
        </mxCell>
        <mxCell id="4QvC7mtdX6xe_Pmgo2VK-542" value="23,75" style="text;html=1;align=center;verticalAlign=middle;resizable=0;points=[];autosize=1;strokeColor=none;fillColor=none;" parent="4QvC7mtdX6xe_Pmgo2VK-536" vertex="1">
          <mxGeometry x="10" y="138" width="50" height="30" as="geometry" />
        </mxCell>
        <mxCell id="4QvC7mtdX6xe_Pmgo2VK-543" value="27,75" style="text;html=1;align=center;verticalAlign=middle;resizable=0;points=[];autosize=1;strokeColor=none;fillColor=none;" parent="4QvC7mtdX6xe_Pmgo2VK-536" vertex="1">
          <mxGeometry x="60" y="138" width="50" height="30" as="geometry" />
        </mxCell>
        <mxCell id="4QvC7mtdX6xe_Pmgo2VK-544" value="4" style="ellipse;whiteSpace=wrap;html=1;aspect=fixed;" parent="4QvC7mtdX6xe_Pmgo2VK-536" vertex="1">
          <mxGeometry x="40" y="50" width="20" height="20" as="geometry" />
        </mxCell>
        <mxCell id="4QvC7mtdX6xe_Pmgo2VK-545" value="" style="group" parent="1" vertex="1" connectable="0">
          <mxGeometry x="2270" y="90" width="110" height="170" as="geometry" />
        </mxCell>
        <mxCell id="UsvHcAkJqKgmJNEMrM5t-44" style="edgeStyle=orthogonalEdgeStyle;rounded=0;orthogonalLoop=1;jettySize=auto;html=1;exitX=1;exitY=0.5;exitDx=0;exitDy=0;" edge="1" parent="4QvC7mtdX6xe_Pmgo2VK-545" source="4QvC7mtdX6xe_Pmgo2VK-546">
          <mxGeometry relative="1" as="geometry">
            <mxPoint x="1180" y="680" as="targetPoint" />
          </mxGeometry>
        </mxCell>
        <mxCell id="4QvC7mtdX6xe_Pmgo2VK-546" value="9" style="ellipse;whiteSpace=wrap;html=1;aspect=fixed;" parent="4QvC7mtdX6xe_Pmgo2VK-545" vertex="1">
          <mxGeometry x="10" width="80" height="80" as="geometry" />
        </mxCell>
        <mxCell id="4QvC7mtdX6xe_Pmgo2VK-547" value="" style="endArrow=none;html=1;rounded=0;" parent="4QvC7mtdX6xe_Pmgo2VK-545" edge="1">
          <mxGeometry width="50" height="50" relative="1" as="geometry">
            <mxPoint x="55" y="170" as="sourcePoint" />
            <mxPoint x="55" y="100" as="targetPoint" />
          </mxGeometry>
        </mxCell>
        <mxCell id="4QvC7mtdX6xe_Pmgo2VK-548" value="" style="endArrow=none;html=1;rounded=0;" parent="4QvC7mtdX6xe_Pmgo2VK-545" edge="1">
          <mxGeometry width="50" height="50" relative="1" as="geometry">
            <mxPoint x="25" y="130" as="sourcePoint" />
            <mxPoint x="95" y="130" as="targetPoint" />
          </mxGeometry>
        </mxCell>
        <mxCell id="4QvC7mtdX6xe_Pmgo2VK-549" value="9,75" style="text;html=1;align=center;verticalAlign=middle;resizable=0;points=[];autosize=1;strokeColor=none;fillColor=none;" parent="4QvC7mtdX6xe_Pmgo2VK-545" vertex="1">
          <mxGeometry y="98" width="50" height="30" as="geometry" />
        </mxCell>
        <mxCell id="4QvC7mtdX6xe_Pmgo2VK-550" value="12,75" style="text;html=1;align=center;verticalAlign=middle;resizable=0;points=[];autosize=1;strokeColor=none;fillColor=none;" parent="4QvC7mtdX6xe_Pmgo2VK-545" vertex="1">
          <mxGeometry x="50" y="98" width="50" height="30" as="geometry" />
        </mxCell>
        <mxCell id="4QvC7mtdX6xe_Pmgo2VK-551" value="27,75" style="text;html=1;align=center;verticalAlign=middle;resizable=0;points=[];autosize=1;strokeColor=none;fillColor=none;" parent="4QvC7mtdX6xe_Pmgo2VK-545" vertex="1">
          <mxGeometry x="10" y="138" width="50" height="30" as="geometry" />
        </mxCell>
        <mxCell id="4QvC7mtdX6xe_Pmgo2VK-552" value="30,75" style="text;html=1;align=center;verticalAlign=middle;resizable=0;points=[];autosize=1;strokeColor=none;fillColor=none;" parent="4QvC7mtdX6xe_Pmgo2VK-545" vertex="1">
          <mxGeometry x="60" y="138" width="50" height="30" as="geometry" />
        </mxCell>
        <mxCell id="4QvC7mtdX6xe_Pmgo2VK-553" value="3" style="ellipse;whiteSpace=wrap;html=1;aspect=fixed;" parent="4QvC7mtdX6xe_Pmgo2VK-545" vertex="1">
          <mxGeometry x="40" y="50" width="20" height="20" as="geometry" />
        </mxCell>
        <mxCell id="dGnQUwfUljRy6Q0J8KNK-1" value="" style="group" parent="1" connectable="0" vertex="1">
          <mxGeometry x="1750" y="821" width="110" height="287" as="geometry" />
        </mxCell>
        <mxCell id="dGnQUwfUljRy6Q0J8KNK-2" value="10" style="ellipse;whiteSpace=wrap;html=1;aspect=fixed;" parent="dGnQUwfUljRy6Q0J8KNK-1" vertex="1">
          <mxGeometry x="10" y="120" width="80" height="80" as="geometry" />
        </mxCell>
        <mxCell id="dGnQUwfUljRy6Q0J8KNK-3" value="" style="endArrow=none;html=1;rounded=0;" parent="dGnQUwfUljRy6Q0J8KNK-1" edge="1">
          <mxGeometry width="50" height="50" relative="1" as="geometry">
            <mxPoint x="55" y="289" as="sourcePoint" />
            <mxPoint x="55" y="219" as="targetPoint" />
          </mxGeometry>
        </mxCell>
        <mxCell id="dGnQUwfUljRy6Q0J8KNK-4" value="" style="endArrow=none;html=1;rounded=0;" parent="dGnQUwfUljRy6Q0J8KNK-1" edge="1">
          <mxGeometry width="50" height="50" relative="1" as="geometry">
            <mxPoint x="25" y="250" as="sourcePoint" />
            <mxPoint x="95" y="250" as="targetPoint" />
          </mxGeometry>
        </mxCell>
        <mxCell id="dGnQUwfUljRy6Q0J8KNK-5" value="5,75" style="text;html=1;align=center;verticalAlign=middle;resizable=0;points=[];autosize=1;strokeColor=none;fillColor=none;" parent="dGnQUwfUljRy6Q0J8KNK-1" vertex="1">
          <mxGeometry y="218" width="50" height="30" as="geometry" />
        </mxCell>
        <mxCell id="dGnQUwfUljRy6Q0J8KNK-6" value="7,75" style="text;html=1;align=center;verticalAlign=middle;resizable=0;points=[];autosize=1;strokeColor=none;fillColor=none;" parent="dGnQUwfUljRy6Q0J8KNK-1" vertex="1">
          <mxGeometry x="50" y="218" width="50" height="30" as="geometry" />
        </mxCell>
        <mxCell id="dGnQUwfUljRy6Q0J8KNK-7" value="7,75" style="text;html=1;align=center;verticalAlign=middle;resizable=0;points=[];autosize=1;strokeColor=none;fillColor=none;" parent="dGnQUwfUljRy6Q0J8KNK-1" vertex="1">
          <mxGeometry x="10" y="257" width="50" height="30" as="geometry" />
        </mxCell>
        <mxCell id="dGnQUwfUljRy6Q0J8KNK-8" value="9,75" style="text;html=1;align=center;verticalAlign=middle;resizable=0;points=[];autosize=1;strokeColor=none;fillColor=none;" parent="dGnQUwfUljRy6Q0J8KNK-1" vertex="1">
          <mxGeometry x="60" y="257" width="50" height="30" as="geometry" />
        </mxCell>
        <mxCell id="dGnQUwfUljRy6Q0J8KNK-9" value="2" style="ellipse;whiteSpace=wrap;html=1;aspect=fixed;" parent="dGnQUwfUljRy6Q0J8KNK-1" vertex="1">
          <mxGeometry x="40" y="170" width="20" height="20" as="geometry" />
        </mxCell>
        <mxCell id="dGnQUwfUljRy6Q0J8KNK-10" value="" style="group" parent="1" connectable="0" vertex="1">
          <mxGeometry x="2350" y="850" width="110" height="170" as="geometry" />
        </mxCell>
        <mxCell id="dGnQUwfUljRy6Q0J8KNK-11" value="13" style="ellipse;whiteSpace=wrap;html=1;aspect=fixed;fillColor=#FF3333;" parent="dGnQUwfUljRy6Q0J8KNK-10" vertex="1">
          <mxGeometry x="10" width="80" height="80" as="geometry" />
        </mxCell>
        <mxCell id="dGnQUwfUljRy6Q0J8KNK-12" value="" style="endArrow=none;html=1;rounded=0;" parent="dGnQUwfUljRy6Q0J8KNK-10" edge="1">
          <mxGeometry width="50" height="50" relative="1" as="geometry">
            <mxPoint x="55" y="170" as="sourcePoint" />
            <mxPoint x="55" y="100" as="targetPoint" />
          </mxGeometry>
        </mxCell>
        <mxCell id="dGnQUwfUljRy6Q0J8KNK-13" value="" style="endArrow=none;html=1;rounded=0;" parent="dGnQUwfUljRy6Q0J8KNK-10" edge="1">
          <mxGeometry width="50" height="50" relative="1" as="geometry">
            <mxPoint x="25" y="130" as="sourcePoint" />
            <mxPoint x="95" y="130" as="targetPoint" />
          </mxGeometry>
        </mxCell>
        <mxCell id="dGnQUwfUljRy6Q0J8KNK-14" value="8,75" style="text;html=1;align=center;verticalAlign=middle;resizable=0;points=[];autosize=1;strokeColor=none;fillColor=none;" parent="dGnQUwfUljRy6Q0J8KNK-10" vertex="1">
          <mxGeometry y="98" width="50" height="30" as="geometry" />
        </mxCell>
        <mxCell id="dGnQUwfUljRy6Q0J8KNK-15" value="12,75" style="text;html=1;align=center;verticalAlign=middle;resizable=0;points=[];autosize=1;strokeColor=none;fillColor=none;" parent="dGnQUwfUljRy6Q0J8KNK-10" vertex="1">
          <mxGeometry x="50" y="98" width="50" height="30" as="geometry" />
        </mxCell>
        <mxCell id="dGnQUwfUljRy6Q0J8KNK-16" value="8,75" style="text;html=1;align=center;verticalAlign=middle;resizable=0;points=[];autosize=1;strokeColor=none;fillColor=none;" parent="dGnQUwfUljRy6Q0J8KNK-10" vertex="1">
          <mxGeometry x="10" y="138" width="50" height="30" as="geometry" />
        </mxCell>
        <mxCell id="dGnQUwfUljRy6Q0J8KNK-17" value="12,75" style="text;html=1;align=center;verticalAlign=middle;resizable=0;points=[];autosize=1;strokeColor=none;fillColor=none;" parent="dGnQUwfUljRy6Q0J8KNK-10" vertex="1">
          <mxGeometry x="60" y="138" width="50" height="30" as="geometry" />
        </mxCell>
        <mxCell id="dGnQUwfUljRy6Q0J8KNK-18" value="4" style="ellipse;whiteSpace=wrap;html=1;aspect=fixed;" parent="dGnQUwfUljRy6Q0J8KNK-10" vertex="1">
          <mxGeometry x="40" y="50" width="20" height="20" as="geometry" />
        </mxCell>
        <mxCell id="dGnQUwfUljRy6Q0J8KNK-19" value="" style="group" parent="1" connectable="0" vertex="1">
          <mxGeometry x="1920" y="820" width="110" height="289" as="geometry" />
        </mxCell>
        <mxCell id="dGnQUwfUljRy6Q0J8KNK-20" value="11" style="ellipse;whiteSpace=wrap;html=1;aspect=fixed;fillColor=#FF6666;" parent="dGnQUwfUljRy6Q0J8KNK-19" vertex="1">
          <mxGeometry x="10" y="120" width="80" height="80" as="geometry" />
        </mxCell>
        <mxCell id="dGnQUwfUljRy6Q0J8KNK-21" value="" style="endArrow=none;html=1;rounded=0;" parent="dGnQUwfUljRy6Q0J8KNK-19" edge="1">
          <mxGeometry width="50" height="50" relative="1" as="geometry">
            <mxPoint x="55" y="291" as="sourcePoint" />
            <mxPoint x="55" y="221" as="targetPoint" />
          </mxGeometry>
        </mxCell>
        <mxCell id="dGnQUwfUljRy6Q0J8KNK-22" value="" style="endArrow=none;html=1;rounded=0;" parent="dGnQUwfUljRy6Q0J8KNK-19" edge="1">
          <mxGeometry width="50" height="50" relative="1" as="geometry">
            <mxPoint x="25" y="250" as="sourcePoint" />
            <mxPoint x="95" y="250" as="targetPoint" />
          </mxGeometry>
        </mxCell>
        <mxCell id="dGnQUwfUljRy6Q0J8KNK-23" value="5,75" style="text;html=1;align=center;verticalAlign=middle;resizable=0;points=[];autosize=1;strokeColor=none;fillColor=none;" parent="dGnQUwfUljRy6Q0J8KNK-19" vertex="1">
          <mxGeometry y="218" width="50" height="30" as="geometry" />
        </mxCell>
        <mxCell id="dGnQUwfUljRy6Q0J8KNK-24" value="8,75" style="text;html=1;align=center;verticalAlign=middle;resizable=0;points=[];autosize=1;strokeColor=none;fillColor=none;" parent="dGnQUwfUljRy6Q0J8KNK-19" vertex="1">
          <mxGeometry x="50" y="218" width="50" height="30" as="geometry" />
        </mxCell>
        <mxCell id="dGnQUwfUljRy6Q0J8KNK-25" value="5,75" style="text;html=1;align=center;verticalAlign=middle;resizable=0;points=[];autosize=1;strokeColor=none;fillColor=none;" parent="dGnQUwfUljRy6Q0J8KNK-19" vertex="1">
          <mxGeometry x="10" y="259" width="50" height="30" as="geometry" />
        </mxCell>
        <mxCell id="dGnQUwfUljRy6Q0J8KNK-26" value="8,75" style="text;html=1;align=center;verticalAlign=middle;resizable=0;points=[];autosize=1;strokeColor=none;fillColor=none;" parent="dGnQUwfUljRy6Q0J8KNK-19" vertex="1">
          <mxGeometry x="60" y="259" width="50" height="30" as="geometry" />
        </mxCell>
        <mxCell id="dGnQUwfUljRy6Q0J8KNK-27" value="3" style="ellipse;whiteSpace=wrap;html=1;aspect=fixed;" parent="dGnQUwfUljRy6Q0J8KNK-19" vertex="1">
          <mxGeometry x="40" y="170" width="20" height="20" as="geometry" />
        </mxCell>
        <mxCell id="dGnQUwfUljRy6Q0J8KNK-28" value="" style="group" parent="1" connectable="0" vertex="1">
          <mxGeometry x="2200" y="540" width="110" height="170" as="geometry" />
        </mxCell>
        <mxCell id="dGnQUwfUljRy6Q0J8KNK-29" value="12" style="ellipse;whiteSpace=wrap;html=1;aspect=fixed;" parent="dGnQUwfUljRy6Q0J8KNK-28" vertex="1">
          <mxGeometry x="10" width="80" height="80" as="geometry" />
        </mxCell>
        <mxCell id="dGnQUwfUljRy6Q0J8KNK-30" value="" style="endArrow=none;html=1;rounded=0;" parent="dGnQUwfUljRy6Q0J8KNK-28" edge="1">
          <mxGeometry width="50" height="50" relative="1" as="geometry">
            <mxPoint x="55" y="170" as="sourcePoint" />
            <mxPoint x="55" y="100" as="targetPoint" />
          </mxGeometry>
        </mxCell>
        <mxCell id="dGnQUwfUljRy6Q0J8KNK-31" value="" style="endArrow=none;html=1;rounded=0;" parent="dGnQUwfUljRy6Q0J8KNK-28" edge="1">
          <mxGeometry width="50" height="50" relative="1" as="geometry">
            <mxPoint x="25" y="130" as="sourcePoint" />
            <mxPoint x="95" y="130" as="targetPoint" />
          </mxGeometry>
        </mxCell>
        <mxCell id="dGnQUwfUljRy6Q0J8KNK-32" value="5,75" style="text;html=1;align=center;verticalAlign=middle;resizable=0;points=[];autosize=1;strokeColor=none;fillColor=none;" parent="dGnQUwfUljRy6Q0J8KNK-28" vertex="1">
          <mxGeometry y="98" width="50" height="30" as="geometry" />
        </mxCell>
        <mxCell id="dGnQUwfUljRy6Q0J8KNK-33" value="7,75" style="text;html=1;align=center;verticalAlign=middle;resizable=0;points=[];autosize=1;strokeColor=none;fillColor=none;" parent="dGnQUwfUljRy6Q0J8KNK-28" vertex="1">
          <mxGeometry x="50" y="98" width="50" height="30" as="geometry" />
        </mxCell>
        <mxCell id="dGnQUwfUljRy6Q0J8KNK-34" value="6,75" style="text;html=1;align=center;verticalAlign=middle;resizable=0;points=[];autosize=1;strokeColor=none;fillColor=none;" parent="dGnQUwfUljRy6Q0J8KNK-28" vertex="1">
          <mxGeometry x="10" y="138" width="50" height="30" as="geometry" />
        </mxCell>
        <mxCell id="dGnQUwfUljRy6Q0J8KNK-35" value="8,75" style="text;html=1;align=center;verticalAlign=middle;resizable=0;points=[];autosize=1;strokeColor=none;fillColor=none;" parent="dGnQUwfUljRy6Q0J8KNK-28" vertex="1">
          <mxGeometry x="60" y="138" width="50" height="30" as="geometry" />
        </mxCell>
        <mxCell id="dGnQUwfUljRy6Q0J8KNK-36" value="2" style="ellipse;whiteSpace=wrap;html=1;aspect=fixed;" parent="dGnQUwfUljRy6Q0J8KNK-28" vertex="1">
          <mxGeometry x="40" y="50" width="20" height="20" as="geometry" />
        </mxCell>
        <mxCell id="dGnQUwfUljRy6Q0J8KNK-38" value="" style="group" parent="1" connectable="0" vertex="1">
          <mxGeometry x="1750" y="1230" width="110" height="170" as="geometry" />
        </mxCell>
        <mxCell id="dGnQUwfUljRy6Q0J8KNK-39" value="14" style="ellipse;whiteSpace=wrap;html=1;aspect=fixed;" parent="dGnQUwfUljRy6Q0J8KNK-38" vertex="1">
          <mxGeometry x="10" width="80" height="80" as="geometry" />
        </mxCell>
        <mxCell id="dGnQUwfUljRy6Q0J8KNK-40" value="" style="endArrow=none;html=1;rounded=0;" parent="dGnQUwfUljRy6Q0J8KNK-38" edge="1">
          <mxGeometry width="50" height="50" relative="1" as="geometry">
            <mxPoint x="55" y="170" as="sourcePoint" />
            <mxPoint x="55" y="100" as="targetPoint" />
          </mxGeometry>
        </mxCell>
        <mxCell id="dGnQUwfUljRy6Q0J8KNK-41" value="" style="endArrow=none;html=1;rounded=0;" parent="dGnQUwfUljRy6Q0J8KNK-38" edge="1">
          <mxGeometry width="50" height="50" relative="1" as="geometry">
            <mxPoint x="25" y="130" as="sourcePoint" />
            <mxPoint x="95" y="130" as="targetPoint" />
          </mxGeometry>
        </mxCell>
        <mxCell id="dGnQUwfUljRy6Q0J8KNK-42" value="7,75" style="text;html=1;align=center;verticalAlign=middle;resizable=0;points=[];autosize=1;strokeColor=none;fillColor=none;" parent="dGnQUwfUljRy6Q0J8KNK-38" vertex="1">
          <mxGeometry y="98" width="50" height="30" as="geometry" />
        </mxCell>
        <mxCell id="dGnQUwfUljRy6Q0J8KNK-43" value="10,75" style="text;html=1;align=center;verticalAlign=middle;resizable=0;points=[];autosize=1;strokeColor=none;fillColor=none;" parent="dGnQUwfUljRy6Q0J8KNK-38" vertex="1">
          <mxGeometry x="50" y="98" width="50" height="30" as="geometry" />
        </mxCell>
        <mxCell id="dGnQUwfUljRy6Q0J8KNK-44" value="9,75" style="text;html=1;align=center;verticalAlign=middle;resizable=0;points=[];autosize=1;strokeColor=none;fillColor=none;" parent="dGnQUwfUljRy6Q0J8KNK-38" vertex="1">
          <mxGeometry x="10" y="138" width="50" height="30" as="geometry" />
        </mxCell>
        <mxCell id="dGnQUwfUljRy6Q0J8KNK-45" value="12,75" style="text;html=1;align=center;verticalAlign=middle;resizable=0;points=[];autosize=1;strokeColor=none;fillColor=none;" parent="dGnQUwfUljRy6Q0J8KNK-38" vertex="1">
          <mxGeometry x="60" y="138" width="50" height="30" as="geometry" />
        </mxCell>
        <mxCell id="dGnQUwfUljRy6Q0J8KNK-46" value="3" style="ellipse;whiteSpace=wrap;html=1;aspect=fixed;" parent="dGnQUwfUljRy6Q0J8KNK-38" vertex="1">
          <mxGeometry x="40" y="50" width="20" height="20" as="geometry" />
        </mxCell>
        <mxCell id="dGnQUwfUljRy6Q0J8KNK-47" value="" style="group" parent="1" connectable="0" vertex="1">
          <mxGeometry x="2300" y="1240" width="110" height="170" as="geometry" />
        </mxCell>
        <mxCell id="dGnQUwfUljRy6Q0J8KNK-48" value="15" style="ellipse;whiteSpace=wrap;html=1;aspect=fixed;fillColor=#FF3333;" parent="dGnQUwfUljRy6Q0J8KNK-47" vertex="1">
          <mxGeometry x="10" width="80" height="80" as="geometry" />
        </mxCell>
        <mxCell id="dGnQUwfUljRy6Q0J8KNK-49" value="" style="endArrow=none;html=1;rounded=0;" parent="dGnQUwfUljRy6Q0J8KNK-47" edge="1">
          <mxGeometry width="50" height="50" relative="1" as="geometry">
            <mxPoint x="55" y="170" as="sourcePoint" />
            <mxPoint x="55" y="100" as="targetPoint" />
          </mxGeometry>
        </mxCell>
        <mxCell id="dGnQUwfUljRy6Q0J8KNK-50" value="" style="endArrow=none;html=1;rounded=0;" parent="dGnQUwfUljRy6Q0J8KNK-47" edge="1">
          <mxGeometry width="50" height="50" relative="1" as="geometry">
            <mxPoint x="25" y="130" as="sourcePoint" />
            <mxPoint x="95" y="130" as="targetPoint" />
          </mxGeometry>
        </mxCell>
        <mxCell id="dGnQUwfUljRy6Q0J8KNK-51" value="12,75" style="text;html=1;align=center;verticalAlign=middle;resizable=0;points=[];autosize=1;strokeColor=none;fillColor=none;" parent="dGnQUwfUljRy6Q0J8KNK-47" vertex="1">
          <mxGeometry y="98" width="50" height="30" as="geometry" />
        </mxCell>
        <mxCell id="dGnQUwfUljRy6Q0J8KNK-52" value="13,75" style="text;html=1;align=center;verticalAlign=middle;resizable=0;points=[];autosize=1;strokeColor=none;fillColor=none;" parent="dGnQUwfUljRy6Q0J8KNK-47" vertex="1">
          <mxGeometry x="50" y="98" width="50" height="30" as="geometry" />
        </mxCell>
        <mxCell id="dGnQUwfUljRy6Q0J8KNK-53" value="12,75" style="text;html=1;align=center;verticalAlign=middle;resizable=0;points=[];autosize=1;strokeColor=none;fillColor=none;" parent="dGnQUwfUljRy6Q0J8KNK-47" vertex="1">
          <mxGeometry x="10" y="138" width="50" height="30" as="geometry" />
        </mxCell>
        <mxCell id="dGnQUwfUljRy6Q0J8KNK-54" value="13,75" style="text;html=1;align=center;verticalAlign=middle;resizable=0;points=[];autosize=1;strokeColor=none;fillColor=none;" parent="dGnQUwfUljRy6Q0J8KNK-47" vertex="1">
          <mxGeometry x="60" y="138" width="50" height="30" as="geometry" />
        </mxCell>
        <mxCell id="dGnQUwfUljRy6Q0J8KNK-55" value="1" style="ellipse;whiteSpace=wrap;html=1;aspect=fixed;" parent="dGnQUwfUljRy6Q0J8KNK-47" vertex="1">
          <mxGeometry x="40" y="50" width="20" height="20" as="geometry" />
        </mxCell>
        <mxCell id="dGnQUwfUljRy6Q0J8KNK-57" value="" style="group" parent="1" connectable="0" vertex="1">
          <mxGeometry x="2600" y="1250" width="110" height="170" as="geometry" />
        </mxCell>
        <mxCell id="dGnQUwfUljRy6Q0J8KNK-58" value="16" style="ellipse;whiteSpace=wrap;html=1;aspect=fixed;fillColor=#FF3333;" parent="dGnQUwfUljRy6Q0J8KNK-57" vertex="1">
          <mxGeometry x="10" width="80" height="80" as="geometry" />
        </mxCell>
        <mxCell id="dGnQUwfUljRy6Q0J8KNK-59" value="" style="endArrow=none;html=1;rounded=0;" parent="dGnQUwfUljRy6Q0J8KNK-57" edge="1">
          <mxGeometry width="50" height="50" relative="1" as="geometry">
            <mxPoint x="55" y="170" as="sourcePoint" />
            <mxPoint x="55" y="100" as="targetPoint" />
          </mxGeometry>
        </mxCell>
        <mxCell id="dGnQUwfUljRy6Q0J8KNK-60" value="" style="endArrow=none;html=1;rounded=0;" parent="dGnQUwfUljRy6Q0J8KNK-57" edge="1">
          <mxGeometry width="50" height="50" relative="1" as="geometry">
            <mxPoint x="25" y="130" as="sourcePoint" />
            <mxPoint x="95" y="130" as="targetPoint" />
          </mxGeometry>
        </mxCell>
        <mxCell id="dGnQUwfUljRy6Q0J8KNK-61" value="13,75" style="text;html=1;align=center;verticalAlign=middle;resizable=0;points=[];autosize=1;strokeColor=none;fillColor=none;" parent="dGnQUwfUljRy6Q0J8KNK-57" vertex="1">
          <mxGeometry y="98" width="50" height="30" as="geometry" />
        </mxCell>
        <mxCell id="dGnQUwfUljRy6Q0J8KNK-62" value="17,75" style="text;html=1;align=center;verticalAlign=middle;resizable=0;points=[];autosize=1;strokeColor=none;fillColor=none;" parent="dGnQUwfUljRy6Q0J8KNK-57" vertex="1">
          <mxGeometry x="50" y="98" width="50" height="30" as="geometry" />
        </mxCell>
        <mxCell id="dGnQUwfUljRy6Q0J8KNK-63" value="13,75" style="text;html=1;align=center;verticalAlign=middle;resizable=0;points=[];autosize=1;strokeColor=none;fillColor=none;" parent="dGnQUwfUljRy6Q0J8KNK-57" vertex="1">
          <mxGeometry x="10" y="138" width="50" height="30" as="geometry" />
        </mxCell>
        <mxCell id="dGnQUwfUljRy6Q0J8KNK-64" value="17,75" style="text;html=1;align=center;verticalAlign=middle;resizable=0;points=[];autosize=1;strokeColor=none;fillColor=none;" parent="dGnQUwfUljRy6Q0J8KNK-57" vertex="1">
          <mxGeometry x="60" y="138" width="50" height="30" as="geometry" />
        </mxCell>
        <mxCell id="dGnQUwfUljRy6Q0J8KNK-65" value="4" style="ellipse;whiteSpace=wrap;html=1;aspect=fixed;" parent="dGnQUwfUljRy6Q0J8KNK-57" vertex="1">
          <mxGeometry x="40" y="50" width="20" height="20" as="geometry" />
        </mxCell>
        <mxCell id="dGnQUwfUljRy6Q0J8KNK-66" value="" style="group" parent="1" connectable="0" vertex="1">
          <mxGeometry x="2780" y="1250" width="110" height="170" as="geometry" />
        </mxCell>
        <mxCell id="dGnQUwfUljRy6Q0J8KNK-67" value="17" style="ellipse;whiteSpace=wrap;html=1;aspect=fixed;fillColor=#FF3333;" parent="dGnQUwfUljRy6Q0J8KNK-66" vertex="1">
          <mxGeometry x="10" width="80" height="80" as="geometry" />
        </mxCell>
        <mxCell id="dGnQUwfUljRy6Q0J8KNK-68" value="" style="endArrow=none;html=1;rounded=0;" parent="dGnQUwfUljRy6Q0J8KNK-66" edge="1">
          <mxGeometry width="50" height="50" relative="1" as="geometry">
            <mxPoint x="55" y="170" as="sourcePoint" />
            <mxPoint x="55" y="100" as="targetPoint" />
          </mxGeometry>
        </mxCell>
        <mxCell id="dGnQUwfUljRy6Q0J8KNK-69" value="" style="endArrow=none;html=1;rounded=0;" parent="dGnQUwfUljRy6Q0J8KNK-66" edge="1">
          <mxGeometry width="50" height="50" relative="1" as="geometry">
            <mxPoint x="25" y="130" as="sourcePoint" />
            <mxPoint x="95" y="130" as="targetPoint" />
          </mxGeometry>
        </mxCell>
        <mxCell id="dGnQUwfUljRy6Q0J8KNK-70" value="17,75" style="text;html=1;align=center;verticalAlign=middle;resizable=0;points=[];autosize=1;strokeColor=none;fillColor=none;" parent="dGnQUwfUljRy6Q0J8KNK-66" vertex="1">
          <mxGeometry y="98" width="50" height="30" as="geometry" />
        </mxCell>
        <mxCell id="dGnQUwfUljRy6Q0J8KNK-71" value="20,75" style="text;html=1;align=center;verticalAlign=middle;resizable=0;points=[];autosize=1;strokeColor=none;fillColor=none;" parent="dGnQUwfUljRy6Q0J8KNK-66" vertex="1">
          <mxGeometry x="50" y="98" width="50" height="30" as="geometry" />
        </mxCell>
        <mxCell id="dGnQUwfUljRy6Q0J8KNK-72" value="17,75" style="text;html=1;align=center;verticalAlign=middle;resizable=0;points=[];autosize=1;strokeColor=none;fillColor=none;" parent="dGnQUwfUljRy6Q0J8KNK-66" vertex="1">
          <mxGeometry x="10" y="138" width="50" height="30" as="geometry" />
        </mxCell>
        <mxCell id="dGnQUwfUljRy6Q0J8KNK-73" value="20,75" style="text;html=1;align=center;verticalAlign=middle;resizable=0;points=[];autosize=1;strokeColor=none;fillColor=none;" parent="dGnQUwfUljRy6Q0J8KNK-66" vertex="1">
          <mxGeometry x="60" y="138" width="50" height="30" as="geometry" />
        </mxCell>
        <mxCell id="dGnQUwfUljRy6Q0J8KNK-74" value="3" style="ellipse;whiteSpace=wrap;html=1;aspect=fixed;" parent="dGnQUwfUljRy6Q0J8KNK-66" vertex="1">
          <mxGeometry x="40" y="50" width="20" height="20" as="geometry" />
        </mxCell>
        <mxCell id="dGnQUwfUljRy6Q0J8KNK-75" value="" style="group" parent="1" connectable="0" vertex="1">
          <mxGeometry x="2950" y="1250" width="115" height="170" as="geometry" />
        </mxCell>
        <mxCell id="dGnQUwfUljRy6Q0J8KNK-76" value="18" style="ellipse;whiteSpace=wrap;html=1;aspect=fixed;fillColor=#FF3333;" parent="dGnQUwfUljRy6Q0J8KNK-75" vertex="1">
          <mxGeometry x="10" width="80" height="80" as="geometry" />
        </mxCell>
        <mxCell id="dGnQUwfUljRy6Q0J8KNK-77" value="" style="endArrow=none;html=1;rounded=0;" parent="dGnQUwfUljRy6Q0J8KNK-75" edge="1">
          <mxGeometry width="50" height="50" relative="1" as="geometry">
            <mxPoint x="55" y="170" as="sourcePoint" />
            <mxPoint x="55" y="100" as="targetPoint" />
          </mxGeometry>
        </mxCell>
        <mxCell id="dGnQUwfUljRy6Q0J8KNK-78" value="" style="endArrow=none;html=1;rounded=0;" parent="dGnQUwfUljRy6Q0J8KNK-75" edge="1">
          <mxGeometry width="50" height="50" relative="1" as="geometry">
            <mxPoint x="25" y="130" as="sourcePoint" />
            <mxPoint x="95" y="130" as="targetPoint" />
          </mxGeometry>
        </mxCell>
        <mxCell id="dGnQUwfUljRy6Q0J8KNK-79" value="20,75" style="text;html=1;align=center;verticalAlign=middle;resizable=0;points=[];autosize=1;strokeColor=none;fillColor=none;" parent="dGnQUwfUljRy6Q0J8KNK-75" vertex="1">
          <mxGeometry y="98" width="50" height="30" as="geometry" />
        </mxCell>
        <mxCell id="dGnQUwfUljRy6Q0J8KNK-80" value="24,75" style="text;html=1;align=center;verticalAlign=middle;resizable=0;points=[];autosize=1;strokeColor=none;fillColor=none;" parent="dGnQUwfUljRy6Q0J8KNK-75" vertex="1">
          <mxGeometry x="50" y="98" width="50" height="30" as="geometry" />
        </mxCell>
        <mxCell id="dGnQUwfUljRy6Q0J8KNK-81" value="20,75" style="text;html=1;align=center;verticalAlign=middle;resizable=0;points=[];autosize=1;strokeColor=none;fillColor=none;" parent="dGnQUwfUljRy6Q0J8KNK-75" vertex="1">
          <mxGeometry x="10" y="138" width="50" height="30" as="geometry" />
        </mxCell>
        <mxCell id="dGnQUwfUljRy6Q0J8KNK-82" value="24,75" style="text;html=1;align=center;verticalAlign=middle;resizable=0;points=[];autosize=1;strokeColor=none;fillColor=none;" parent="dGnQUwfUljRy6Q0J8KNK-75" vertex="1">
          <mxGeometry x="65" y="138" width="50" height="30" as="geometry" />
        </mxCell>
        <mxCell id="dGnQUwfUljRy6Q0J8KNK-83" value="4" style="ellipse;whiteSpace=wrap;html=1;aspect=fixed;" parent="dGnQUwfUljRy6Q0J8KNK-75" vertex="1">
          <mxGeometry x="40" y="50" width="20" height="20" as="geometry" />
        </mxCell>
        <mxCell id="dGnQUwfUljRy6Q0J8KNK-84" value="" style="group" parent="1" connectable="0" vertex="1">
          <mxGeometry x="3120" y="1250" width="110" height="170" as="geometry" />
        </mxCell>
        <mxCell id="dGnQUwfUljRy6Q0J8KNK-85" value="19" style="ellipse;whiteSpace=wrap;html=1;aspect=fixed;fillColor=#FF3333;" parent="dGnQUwfUljRy6Q0J8KNK-84" vertex="1">
          <mxGeometry x="10" width="80" height="80" as="geometry" />
        </mxCell>
        <mxCell id="dGnQUwfUljRy6Q0J8KNK-86" value="" style="endArrow=none;html=1;rounded=0;" parent="dGnQUwfUljRy6Q0J8KNK-84" edge="1">
          <mxGeometry width="50" height="50" relative="1" as="geometry">
            <mxPoint x="55" y="170" as="sourcePoint" />
            <mxPoint x="55" y="100" as="targetPoint" />
          </mxGeometry>
        </mxCell>
        <mxCell id="dGnQUwfUljRy6Q0J8KNK-87" value="" style="endArrow=none;html=1;rounded=0;" parent="dGnQUwfUljRy6Q0J8KNK-84" edge="1">
          <mxGeometry width="50" height="50" relative="1" as="geometry">
            <mxPoint x="25" y="130" as="sourcePoint" />
            <mxPoint x="95" y="130" as="targetPoint" />
          </mxGeometry>
        </mxCell>
        <mxCell id="dGnQUwfUljRy6Q0J8KNK-88" value="24,75" style="text;html=1;align=center;verticalAlign=middle;resizable=0;points=[];autosize=1;strokeColor=none;fillColor=none;" parent="dGnQUwfUljRy6Q0J8KNK-84" vertex="1">
          <mxGeometry y="98" width="50" height="30" as="geometry" />
        </mxCell>
        <mxCell id="dGnQUwfUljRy6Q0J8KNK-89" value="26,75" style="text;html=1;align=center;verticalAlign=middle;resizable=0;points=[];autosize=1;strokeColor=none;fillColor=none;" parent="dGnQUwfUljRy6Q0J8KNK-84" vertex="1">
          <mxGeometry x="50" y="98" width="50" height="30" as="geometry" />
        </mxCell>
        <mxCell id="dGnQUwfUljRy6Q0J8KNK-90" value="24,75" style="text;html=1;align=center;verticalAlign=middle;resizable=0;points=[];autosize=1;strokeColor=none;fillColor=none;" parent="dGnQUwfUljRy6Q0J8KNK-84" vertex="1">
          <mxGeometry x="5" y="138" width="50" height="30" as="geometry" />
        </mxCell>
        <mxCell id="dGnQUwfUljRy6Q0J8KNK-91" value="26,75" style="text;html=1;align=center;verticalAlign=middle;resizable=0;points=[];autosize=1;strokeColor=none;fillColor=none;" parent="dGnQUwfUljRy6Q0J8KNK-84" vertex="1">
          <mxGeometry x="60" y="138" width="50" height="30" as="geometry" />
        </mxCell>
        <mxCell id="dGnQUwfUljRy6Q0J8KNK-92" value="2" style="ellipse;whiteSpace=wrap;html=1;aspect=fixed;" parent="dGnQUwfUljRy6Q0J8KNK-84" vertex="1">
          <mxGeometry x="40" y="50" width="20" height="20" as="geometry" />
        </mxCell>
        <mxCell id="dGnQUwfUljRy6Q0J8KNK-93" value="" style="group" parent="1" connectable="0" vertex="1">
          <mxGeometry x="3270" y="1250" width="110" height="170" as="geometry" />
        </mxCell>
        <mxCell id="dGnQUwfUljRy6Q0J8KNK-94" value="20" style="ellipse;whiteSpace=wrap;html=1;aspect=fixed;fillColor=#FF3333;" parent="dGnQUwfUljRy6Q0J8KNK-93" vertex="1">
          <mxGeometry x="10" width="80" height="80" as="geometry" />
        </mxCell>
        <mxCell id="dGnQUwfUljRy6Q0J8KNK-95" value="" style="endArrow=none;html=1;rounded=0;" parent="dGnQUwfUljRy6Q0J8KNK-93" edge="1">
          <mxGeometry width="50" height="50" relative="1" as="geometry">
            <mxPoint x="55" y="170" as="sourcePoint" />
            <mxPoint x="55" y="100" as="targetPoint" />
          </mxGeometry>
        </mxCell>
        <mxCell id="dGnQUwfUljRy6Q0J8KNK-96" value="" style="endArrow=none;html=1;rounded=0;" parent="dGnQUwfUljRy6Q0J8KNK-93" edge="1">
          <mxGeometry width="50" height="50" relative="1" as="geometry">
            <mxPoint x="25" y="130" as="sourcePoint" />
            <mxPoint x="95" y="130" as="targetPoint" />
          </mxGeometry>
        </mxCell>
        <mxCell id="dGnQUwfUljRy6Q0J8KNK-97" value="26,75" style="text;html=1;align=center;verticalAlign=middle;resizable=0;points=[];autosize=1;strokeColor=none;fillColor=none;" parent="dGnQUwfUljRy6Q0J8KNK-93" vertex="1">
          <mxGeometry y="98" width="50" height="30" as="geometry" />
        </mxCell>
        <mxCell id="dGnQUwfUljRy6Q0J8KNK-98" value="30,75" style="text;html=1;align=center;verticalAlign=middle;resizable=0;points=[];autosize=1;strokeColor=none;fillColor=none;" parent="dGnQUwfUljRy6Q0J8KNK-93" vertex="1">
          <mxGeometry x="50" y="98" width="50" height="30" as="geometry" />
        </mxCell>
        <mxCell id="dGnQUwfUljRy6Q0J8KNK-99" value="26,75" style="text;html=1;align=center;verticalAlign=middle;resizable=0;points=[];autosize=1;strokeColor=none;fillColor=none;" parent="dGnQUwfUljRy6Q0J8KNK-93" vertex="1">
          <mxGeometry x="10" y="138" width="50" height="30" as="geometry" />
        </mxCell>
        <mxCell id="dGnQUwfUljRy6Q0J8KNK-100" value="30,75" style="text;html=1;align=center;verticalAlign=middle;resizable=0;points=[];autosize=1;strokeColor=none;fillColor=none;" parent="dGnQUwfUljRy6Q0J8KNK-93" vertex="1">
          <mxGeometry x="60" y="138" width="50" height="30" as="geometry" />
        </mxCell>
        <mxCell id="dGnQUwfUljRy6Q0J8KNK-101" value="4" style="ellipse;whiteSpace=wrap;html=1;aspect=fixed;" parent="dGnQUwfUljRy6Q0J8KNK-93" vertex="1">
          <mxGeometry x="40" y="50" width="20" height="20" as="geometry" />
        </mxCell>
        <mxCell id="dGnQUwfUljRy6Q0J8KNK-103" value="" style="group" parent="1" connectable="0" vertex="1">
          <mxGeometry x="3400" y="780" width="110" height="170" as="geometry" />
        </mxCell>
        <mxCell id="dGnQUwfUljRy6Q0J8KNK-104" value="FIN" style="ellipse;whiteSpace=wrap;html=1;aspect=fixed;fillColor=#FF3333;" parent="dGnQUwfUljRy6Q0J8KNK-103" vertex="1">
          <mxGeometry x="10" width="80" height="80" as="geometry" />
        </mxCell>
        <mxCell id="dGnQUwfUljRy6Q0J8KNK-105" value="" style="endArrow=none;html=1;rounded=0;" parent="dGnQUwfUljRy6Q0J8KNK-103" edge="1">
          <mxGeometry width="50" height="50" relative="1" as="geometry">
            <mxPoint x="55" y="170" as="sourcePoint" />
            <mxPoint x="55" y="100" as="targetPoint" />
          </mxGeometry>
        </mxCell>
        <mxCell id="dGnQUwfUljRy6Q0J8KNK-106" value="" style="endArrow=none;html=1;rounded=0;" parent="dGnQUwfUljRy6Q0J8KNK-103" edge="1">
          <mxGeometry width="50" height="50" relative="1" as="geometry">
            <mxPoint x="25" y="130" as="sourcePoint" />
            <mxPoint x="95" y="130" as="targetPoint" />
          </mxGeometry>
        </mxCell>
        <mxCell id="dGnQUwfUljRy6Q0J8KNK-107" value="30,75" style="text;html=1;align=center;verticalAlign=middle;resizable=0;points=[];autosize=1;strokeColor=none;fillColor=none;" parent="dGnQUwfUljRy6Q0J8KNK-103" vertex="1">
          <mxGeometry y="98" width="50" height="30" as="geometry" />
        </mxCell>
        <mxCell id="dGnQUwfUljRy6Q0J8KNK-108" value="30,75" style="text;html=1;align=center;verticalAlign=middle;resizable=0;points=[];autosize=1;strokeColor=none;fillColor=none;" parent="dGnQUwfUljRy6Q0J8KNK-103" vertex="1">
          <mxGeometry x="50" y="98" width="50" height="30" as="geometry" />
        </mxCell>
        <mxCell id="dGnQUwfUljRy6Q0J8KNK-109" value="30,75" style="text;html=1;align=center;verticalAlign=middle;resizable=0;points=[];autosize=1;strokeColor=none;fillColor=none;" parent="dGnQUwfUljRy6Q0J8KNK-103" vertex="1">
          <mxGeometry x="10" y="138" width="50" height="30" as="geometry" />
        </mxCell>
        <mxCell id="dGnQUwfUljRy6Q0J8KNK-110" value="30,75" style="text;html=1;align=center;verticalAlign=middle;resizable=0;points=[];autosize=1;strokeColor=none;fillColor=none;" parent="dGnQUwfUljRy6Q0J8KNK-103" vertex="1">
          <mxGeometry x="60" y="138" width="50" height="30" as="geometry" />
        </mxCell>
        <mxCell id="dGnQUwfUljRy6Q0J8KNK-111" value="0" style="ellipse;whiteSpace=wrap;html=1;aspect=fixed;" parent="dGnQUwfUljRy6Q0J8KNK-103" vertex="1">
          <mxGeometry x="40" y="50" width="20" height="20" as="geometry" />
        </mxCell>
        <mxCell id="dGnQUwfUljRy6Q0J8KNK-140" style="edgeStyle=orthogonalEdgeStyle;rounded=0;orthogonalLoop=1;jettySize=auto;html=1;entryX=0;entryY=0.5;entryDx=0;entryDy=0;" parent="1" source="dGnQUwfUljRy6Q0J8KNK-58" target="dGnQUwfUljRy6Q0J8KNK-67" edge="1">
          <mxGeometry relative="1" as="geometry" />
        </mxCell>
        <mxCell id="dGnQUwfUljRy6Q0J8KNK-141" style="edgeStyle=orthogonalEdgeStyle;rounded=0;orthogonalLoop=1;jettySize=auto;html=1;entryX=0;entryY=0.5;entryDx=0;entryDy=0;" parent="1" source="dGnQUwfUljRy6Q0J8KNK-67" target="dGnQUwfUljRy6Q0J8KNK-76" edge="1">
          <mxGeometry relative="1" as="geometry" />
        </mxCell>
        <mxCell id="dGnQUwfUljRy6Q0J8KNK-142" style="edgeStyle=orthogonalEdgeStyle;rounded=0;orthogonalLoop=1;jettySize=auto;html=1;entryX=0;entryY=0.5;entryDx=0;entryDy=0;" parent="1" source="dGnQUwfUljRy6Q0J8KNK-76" target="dGnQUwfUljRy6Q0J8KNK-85" edge="1">
          <mxGeometry relative="1" as="geometry" />
        </mxCell>
        <mxCell id="dGnQUwfUljRy6Q0J8KNK-143" style="edgeStyle=orthogonalEdgeStyle;rounded=0;orthogonalLoop=1;jettySize=auto;html=1;entryX=0;entryY=0.5;entryDx=0;entryDy=0;" parent="1" source="dGnQUwfUljRy6Q0J8KNK-85" target="dGnQUwfUljRy6Q0J8KNK-94" edge="1">
          <mxGeometry relative="1" as="geometry" />
        </mxCell>
        <mxCell id="dGnQUwfUljRy6Q0J8KNK-144" style="edgeStyle=orthogonalEdgeStyle;rounded=0;orthogonalLoop=1;jettySize=auto;html=1;" parent="1" source="dGnQUwfUljRy6Q0J8KNK-94" target="dGnQUwfUljRy6Q0J8KNK-104" edge="1">
          <mxGeometry relative="1" as="geometry">
            <Array as="points">
              <mxPoint x="3580" y="1290" />
              <mxPoint x="3580" y="810" />
            </Array>
          </mxGeometry>
        </mxCell>
        <mxCell id="UsvHcAkJqKgmJNEMrM5t-13" style="edgeStyle=orthogonalEdgeStyle;rounded=0;orthogonalLoop=1;jettySize=auto;html=1;exitX=1;exitY=0.5;exitDx=0;exitDy=0;entryX=0;entryY=0.5;entryDx=0;entryDy=0;" edge="1" parent="1" source="4QvC7mtdX6xe_Pmgo2VK-462" target="4QvC7mtdX6xe_Pmgo2VK-472">
          <mxGeometry relative="1" as="geometry" />
        </mxCell>
        <mxCell id="UsvHcAkJqKgmJNEMrM5t-14" style="edgeStyle=orthogonalEdgeStyle;rounded=0;orthogonalLoop=1;jettySize=auto;html=1;exitX=1;exitY=0.5;exitDx=0;exitDy=0;" edge="1" parent="1" source="4QvC7mtdX6xe_Pmgo2VK-472" target="4QvC7mtdX6xe_Pmgo2VK-481">
          <mxGeometry relative="1" as="geometry" />
        </mxCell>
        <mxCell id="UsvHcAkJqKgmJNEMrM5t-15" style="edgeStyle=orthogonalEdgeStyle;rounded=0;orthogonalLoop=1;jettySize=auto;html=1;exitX=1;exitY=0;exitDx=0;exitDy=0;entryX=0;entryY=0.5;entryDx=0;entryDy=0;" edge="1" parent="1" source="4QvC7mtdX6xe_Pmgo2VK-481" target="4QvC7mtdX6xe_Pmgo2VK-508">
          <mxGeometry relative="1" as="geometry" />
        </mxCell>
        <mxCell id="UsvHcAkJqKgmJNEMrM5t-16" style="edgeStyle=orthogonalEdgeStyle;rounded=0;orthogonalLoop=1;jettySize=auto;html=1;exitX=1;exitY=0.5;exitDx=0;exitDy=0;entryX=0;entryY=0.5;entryDx=0;entryDy=0;" edge="1" parent="1" source="4QvC7mtdX6xe_Pmgo2VK-481" target="4QvC7mtdX6xe_Pmgo2VK-490">
          <mxGeometry relative="1" as="geometry" />
        </mxCell>
        <mxCell id="UsvHcAkJqKgmJNEMrM5t-20" style="edgeStyle=orthogonalEdgeStyle;rounded=0;orthogonalLoop=1;jettySize=auto;html=1;exitX=1;exitY=1;exitDx=0;exitDy=0;entryX=0;entryY=0.5;entryDx=0;entryDy=0;" edge="1" parent="1" source="4QvC7mtdX6xe_Pmgo2VK-490" target="4QvC7mtdX6xe_Pmgo2VK-519">
          <mxGeometry relative="1" as="geometry" />
        </mxCell>
        <mxCell id="UsvHcAkJqKgmJNEMrM5t-21" style="edgeStyle=orthogonalEdgeStyle;rounded=0;orthogonalLoop=1;jettySize=auto;html=1;exitX=0;exitY=1;exitDx=0;exitDy=0;entryX=0;entryY=0.5;entryDx=0;entryDy=0;" edge="1" parent="1" source="4QvC7mtdX6xe_Pmgo2VK-508" target="4QvC7mtdX6xe_Pmgo2VK-499">
          <mxGeometry relative="1" as="geometry">
            <Array as="points">
              <mxPoint x="1580" y="378" />
              <mxPoint x="1580" y="560" />
            </Array>
          </mxGeometry>
        </mxCell>
        <mxCell id="UsvHcAkJqKgmJNEMrM5t-23" style="edgeStyle=orthogonalEdgeStyle;rounded=0;orthogonalLoop=1;jettySize=auto;html=1;exitX=0;exitY=0;exitDx=0;exitDy=0;entryX=0;entryY=1;entryDx=0;entryDy=0;" edge="1" parent="1" source="4QvC7mtdX6xe_Pmgo2VK-490" target="4QvC7mtdX6xe_Pmgo2VK-499">
          <mxGeometry relative="1" as="geometry">
            <Array as="points">
              <mxPoint x="1592" y="588" />
            </Array>
          </mxGeometry>
        </mxCell>
        <mxCell id="UsvHcAkJqKgmJNEMrM5t-24" style="edgeStyle=orthogonalEdgeStyle;rounded=0;orthogonalLoop=1;jettySize=auto;html=1;exitX=1;exitY=0;exitDx=0;exitDy=0;entryX=0;entryY=0;entryDx=0;entryDy=0;" edge="1" parent="1" source="4QvC7mtdX6xe_Pmgo2VK-508" target="4QvC7mtdX6xe_Pmgo2VK-519">
          <mxGeometry relative="1" as="geometry" />
        </mxCell>
        <mxCell id="UsvHcAkJqKgmJNEMrM5t-25" style="rounded=0;orthogonalLoop=1;jettySize=auto;html=1;exitX=1;exitY=0;exitDx=0;exitDy=0;entryX=0;entryY=0.5;entryDx=0;entryDy=0;" edge="1" parent="1" source="4QvC7mtdX6xe_Pmgo2VK-499" target="4QvC7mtdX6xe_Pmgo2VK-528">
          <mxGeometry relative="1" as="geometry" />
        </mxCell>
        <mxCell id="UsvHcAkJqKgmJNEMrM5t-26" style="rounded=0;orthogonalLoop=1;jettySize=auto;html=1;exitX=0.5;exitY=0;exitDx=0;exitDy=0;entryX=0;entryY=0.5;entryDx=0;entryDy=0;" edge="1" parent="1" source="4QvC7mtdX6xe_Pmgo2VK-499" target="4QvC7mtdX6xe_Pmgo2VK-537">
          <mxGeometry relative="1" as="geometry" />
        </mxCell>
        <mxCell id="UsvHcAkJqKgmJNEMrM5t-27" style="rounded=0;orthogonalLoop=1;jettySize=auto;html=1;exitX=0.5;exitY=0;exitDx=0;exitDy=0;entryX=1;entryY=1;entryDx=0;entryDy=0;" edge="1" parent="1" source="4QvC7mtdX6xe_Pmgo2VK-519" target="4QvC7mtdX6xe_Pmgo2VK-537">
          <mxGeometry relative="1" as="geometry">
            <Array as="points">
              <mxPoint x="1980" y="350" />
            </Array>
          </mxGeometry>
        </mxCell>
        <mxCell id="UsvHcAkJqKgmJNEMrM5t-28" style="edgeStyle=orthogonalEdgeStyle;rounded=0;orthogonalLoop=1;jettySize=auto;html=1;exitX=1;exitY=0;exitDx=0;exitDy=0;entryX=1;entryY=0.5;entryDx=0;entryDy=0;" edge="1" parent="1" source="4QvC7mtdX6xe_Pmgo2VK-519" target="4QvC7mtdX6xe_Pmgo2VK-528">
          <mxGeometry relative="1" as="geometry">
            <Array as="points">
              <mxPoint x="2070" y="672" />
              <mxPoint x="2070" y="140" />
            </Array>
          </mxGeometry>
        </mxCell>
        <mxCell id="UsvHcAkJqKgmJNEMrM5t-29" style="rounded=0;orthogonalLoop=1;jettySize=auto;html=1;exitX=0.625;exitY=1;exitDx=0;exitDy=0;entryX=0;entryY=0;entryDx=0;entryDy=0;exitPerimeter=0;" edge="1" parent="1" source="4QvC7mtdX6xe_Pmgo2VK-499" target="dGnQUwfUljRy6Q0J8KNK-2">
          <mxGeometry relative="1" as="geometry">
            <Array as="points" />
          </mxGeometry>
        </mxCell>
        <mxCell id="UsvHcAkJqKgmJNEMrM5t-30" style="rounded=0;orthogonalLoop=1;jettySize=auto;html=1;exitX=1;exitY=1;exitDx=0;exitDy=0;entryX=0;entryY=0.5;entryDx=0;entryDy=0;" edge="1" parent="1" source="4QvC7mtdX6xe_Pmgo2VK-499" target="dGnQUwfUljRy6Q0J8KNK-20">
          <mxGeometry relative="1" as="geometry" />
        </mxCell>
        <mxCell id="UsvHcAkJqKgmJNEMrM5t-31" style="rounded=0;orthogonalLoop=1;jettySize=auto;html=1;exitX=0;exitY=1;exitDx=0;exitDy=0;" edge="1" parent="1" source="4QvC7mtdX6xe_Pmgo2VK-519" target="dGnQUwfUljRy6Q0J8KNK-2">
          <mxGeometry relative="1" as="geometry" />
        </mxCell>
        <mxCell id="UsvHcAkJqKgmJNEMrM5t-32" style="edgeStyle=orthogonalEdgeStyle;rounded=0;orthogonalLoop=1;jettySize=auto;html=1;exitX=1;exitY=1;exitDx=0;exitDy=0;entryX=1;entryY=0.5;entryDx=0;entryDy=0;" edge="1" parent="1" source="4QvC7mtdX6xe_Pmgo2VK-519" target="dGnQUwfUljRy6Q0J8KNK-20">
          <mxGeometry relative="1" as="geometry">
            <Array as="points">
              <mxPoint x="2030" y="728" />
              <mxPoint x="2030" y="980" />
            </Array>
          </mxGeometry>
        </mxCell>
        <mxCell id="UsvHcAkJqKgmJNEMrM5t-33" style="edgeStyle=orthogonalEdgeStyle;rounded=0;orthogonalLoop=1;jettySize=auto;html=1;exitX=1;exitY=0.5;exitDx=0;exitDy=0;entryX=0;entryY=0;entryDx=0;entryDy=0;" edge="1" parent="1" source="4QvC7mtdX6xe_Pmgo2VK-499" target="dGnQUwfUljRy6Q0J8KNK-29">
          <mxGeometry relative="1" as="geometry" />
        </mxCell>
        <mxCell id="UsvHcAkJqKgmJNEMrM5t-34" style="edgeStyle=orthogonalEdgeStyle;rounded=0;orthogonalLoop=1;jettySize=auto;html=1;exitX=1;exitY=0.5;exitDx=0;exitDy=0;entryX=0;entryY=0.5;entryDx=0;entryDy=0;" edge="1" parent="1" source="4QvC7mtdX6xe_Pmgo2VK-519" target="dGnQUwfUljRy6Q0J8KNK-29">
          <mxGeometry relative="1" as="geometry" />
        </mxCell>
        <mxCell id="UsvHcAkJqKgmJNEMrM5t-35" style="edgeStyle=orthogonalEdgeStyle;rounded=0;orthogonalLoop=1;jettySize=auto;html=1;exitX=0.5;exitY=0;exitDx=0;exitDy=0;entryX=0.5;entryY=0;entryDx=0;entryDy=0;" edge="1" parent="1" source="4QvC7mtdX6xe_Pmgo2VK-537" target="4QvC7mtdX6xe_Pmgo2VK-546">
          <mxGeometry relative="1" as="geometry" />
        </mxCell>
        <mxCell id="UsvHcAkJqKgmJNEMrM5t-36" style="edgeStyle=orthogonalEdgeStyle;rounded=0;orthogonalLoop=1;jettySize=auto;html=1;exitX=1;exitY=0;exitDx=0;exitDy=0;entryX=0;entryY=0.5;entryDx=0;entryDy=0;" edge="1" parent="1" source="4QvC7mtdX6xe_Pmgo2VK-528" target="4QvC7mtdX6xe_Pmgo2VK-546">
          <mxGeometry relative="1" as="geometry" />
        </mxCell>
        <mxCell id="UsvHcAkJqKgmJNEMrM5t-38" style="edgeStyle=orthogonalEdgeStyle;rounded=0;orthogonalLoop=1;jettySize=auto;html=1;exitX=1;exitY=1;exitDx=0;exitDy=0;entryX=0;entryY=0.5;entryDx=0;entryDy=0;" edge="1" parent="1" source="dGnQUwfUljRy6Q0J8KNK-20" target="dGnQUwfUljRy6Q0J8KNK-11">
          <mxGeometry relative="1" as="geometry" />
        </mxCell>
        <mxCell id="UsvHcAkJqKgmJNEMrM5t-39" style="edgeStyle=orthogonalEdgeStyle;rounded=0;orthogonalLoop=1;jettySize=auto;html=1;exitX=1;exitY=0.5;exitDx=0;exitDy=0;" edge="1" parent="1" source="dGnQUwfUljRy6Q0J8KNK-29" target="dGnQUwfUljRy6Q0J8KNK-11">
          <mxGeometry relative="1" as="geometry" />
        </mxCell>
        <mxCell id="UsvHcAkJqKgmJNEMrM5t-40" style="edgeStyle=orthogonalEdgeStyle;rounded=0;orthogonalLoop=1;jettySize=auto;html=1;exitX=0;exitY=0.5;exitDx=0;exitDy=0;entryX=0;entryY=0.5;entryDx=0;entryDy=0;" edge="1" parent="1" source="dGnQUwfUljRy6Q0J8KNK-2" target="dGnQUwfUljRy6Q0J8KNK-39">
          <mxGeometry relative="1" as="geometry" />
        </mxCell>
        <mxCell id="UsvHcAkJqKgmJNEMrM5t-41" style="edgeStyle=orthogonalEdgeStyle;rounded=0;orthogonalLoop=1;jettySize=auto;html=1;exitX=0;exitY=1;exitDx=0;exitDy=0;entryX=0;entryY=0;entryDx=0;entryDy=0;" edge="1" parent="1" source="dGnQUwfUljRy6Q0J8KNK-11" target="dGnQUwfUljRy6Q0J8KNK-48">
          <mxGeometry relative="1" as="geometry">
            <Array as="points">
              <mxPoint x="2322" y="918" />
            </Array>
          </mxGeometry>
        </mxCell>
        <mxCell id="UsvHcAkJqKgmJNEMrM5t-42" style="edgeStyle=orthogonalEdgeStyle;rounded=0;orthogonalLoop=1;jettySize=auto;html=1;exitX=1;exitY=0.5;exitDx=0;exitDy=0;" edge="1" parent="1" source="dGnQUwfUljRy6Q0J8KNK-39" target="dGnQUwfUljRy6Q0J8KNK-48">
          <mxGeometry relative="1" as="geometry" />
        </mxCell>
        <mxCell id="UsvHcAkJqKgmJNEMrM5t-43" style="edgeStyle=orthogonalEdgeStyle;rounded=0;orthogonalLoop=1;jettySize=auto;html=1;entryX=0;entryY=0.5;entryDx=0;entryDy=0;" edge="1" parent="1" source="dGnQUwfUljRy6Q0J8KNK-48" target="dGnQUwfUljRy6Q0J8KNK-58">
          <mxGeometry relative="1" as="geometry" />
        </mxCell>
        <mxCell id="UsvHcAkJqKgmJNEMrM5t-45" value="H = 0" style="text;html=1;align=center;verticalAlign=middle;resizable=0;points=[];autosize=1;strokeColor=none;fillColor=none;" vertex="1" parent="1">
          <mxGeometry x="3435" y="978" width="50" height="30" as="geometry" />
        </mxCell>
        <mxCell id="UsvHcAkJqKgmJNEMrM5t-46" value="H = 18&lt;br&gt;" style="text;html=1;align=center;verticalAlign=middle;resizable=0;points=[];autosize=1;strokeColor=none;fillColor=none;" vertex="1" parent="1">
          <mxGeometry x="2280" y="278" width="60" height="30" as="geometry" />
        </mxCell>
        <mxCell id="UsvHcAkJqKgmJNEMrM5t-47" value="H = 19" style="text;html=1;align=center;verticalAlign=middle;resizable=0;points=[];autosize=1;strokeColor=none;fillColor=none;" vertex="1" parent="1">
          <mxGeometry x="1980" y="268" width="60" height="30" as="geometry" />
        </mxCell>
        <mxCell id="UsvHcAkJqKgmJNEMrM5t-48" value="H = 18&amp;nbsp;" style="text;html=1;align=center;verticalAlign=middle;resizable=0;points=[];autosize=1;strokeColor=none;fillColor=none;" vertex="1" parent="1">
          <mxGeometry x="1800" y="268" width="60" height="30" as="geometry" />
        </mxCell>
        <mxCell id="UsvHcAkJqKgmJNEMrM5t-49" value="H = 0" style="text;html=1;align=center;verticalAlign=middle;resizable=0;points=[];autosize=1;strokeColor=none;fillColor=none;" vertex="1" parent="1">
          <mxGeometry x="1635" y="488" width="50" height="30" as="geometry" />
        </mxCell>
        <mxCell id="UsvHcAkJqKgmJNEMrM5t-52" value="H = 0" style="text;html=1;align=center;verticalAlign=middle;resizable=0;points=[];autosize=1;strokeColor=none;fillColor=none;" vertex="1" parent="1">
          <mxGeometry x="1655" y="698" width="50" height="30" as="geometry" />
        </mxCell>
        <mxCell id="UsvHcAkJqKgmJNEMrM5t-53" value="H = 2&amp;nbsp;" style="text;html=1;align=center;verticalAlign=middle;resizable=0;points=[];autosize=1;strokeColor=none;fillColor=none;" vertex="1" parent="1">
          <mxGeometry x="1940" y="848" width="60" height="30" as="geometry" />
        </mxCell>
        <mxCell id="UsvHcAkJqKgmJNEMrM5t-54" value="H = 1&amp;nbsp;" style="text;html=1;align=center;verticalAlign=middle;resizable=0;points=[];autosize=1;strokeColor=none;fillColor=none;" vertex="1" parent="1">
          <mxGeometry x="2240" y="728" width="60" height="30" as="geometry" />
        </mxCell>
        <mxCell id="UsvHcAkJqKgmJNEMrM5t-55" value="H = 0" style="text;html=1;align=center;verticalAlign=middle;resizable=0;points=[];autosize=1;strokeColor=none;fillColor=none;" vertex="1" parent="1">
          <mxGeometry x="2405" y="1018" width="50" height="30" as="geometry" />
        </mxCell>
        <mxCell id="UsvHcAkJqKgmJNEMrM5t-56" value="H = 0" style="text;html=1;align=center;verticalAlign=middle;resizable=0;points=[];autosize=1;strokeColor=none;fillColor=none;" vertex="1" parent="1">
          <mxGeometry x="1965" y="1128" width="50" height="30" as="geometry" />
        </mxCell>
        <mxCell id="UsvHcAkJqKgmJNEMrM5t-57" value="H = 2" style="text;html=1;align=center;verticalAlign=middle;resizable=0;points=[];autosize=1;strokeColor=none;fillColor=none;" vertex="1" parent="1">
          <mxGeometry x="1775" y="1128" width="50" height="30" as="geometry" />
        </mxCell>
        <mxCell id="UsvHcAkJqKgmJNEMrM5t-59" value="H = 2&amp;nbsp;" style="text;html=1;align=center;verticalAlign=middle;resizable=0;points=[];autosize=1;strokeColor=none;fillColor=none;" vertex="1" parent="1">
          <mxGeometry x="1810" y="1408" width="60" height="30" as="geometry" />
        </mxCell>
        <mxCell id="UsvHcAkJqKgmJNEMrM5t-60" value="H = 0" style="text;html=1;align=center;verticalAlign=middle;resizable=0;points=[];autosize=1;strokeColor=none;fillColor=none;" vertex="1" parent="1">
          <mxGeometry x="2325" y="1418" width="50" height="30" as="geometry" />
        </mxCell>
        <mxCell id="UsvHcAkJqKgmJNEMrM5t-61" value="H = 0" style="text;html=1;align=center;verticalAlign=middle;resizable=0;points=[];autosize=1;strokeColor=none;fillColor=none;" vertex="1" parent="1">
          <mxGeometry x="2615" y="1448" width="50" height="30" as="geometry" />
        </mxCell>
        <mxCell id="UsvHcAkJqKgmJNEMrM5t-62" value="H = 0" style="text;html=1;align=center;verticalAlign=middle;resizable=0;points=[];autosize=1;strokeColor=none;fillColor=none;" vertex="1" parent="1">
          <mxGeometry x="2785" y="1438" width="50" height="30" as="geometry" />
        </mxCell>
        <mxCell id="UsvHcAkJqKgmJNEMrM5t-63" value="H = 0" style="text;html=1;align=center;verticalAlign=middle;resizable=0;points=[];autosize=1;strokeColor=none;fillColor=none;" vertex="1" parent="1">
          <mxGeometry x="2980" y="1430" width="50" height="30" as="geometry" />
        </mxCell>
        <mxCell id="UsvHcAkJqKgmJNEMrM5t-64" value="H = 0" style="text;html=1;align=center;verticalAlign=middle;resizable=0;points=[];autosize=1;strokeColor=none;fillColor=none;" vertex="1" parent="1">
          <mxGeometry x="3150" y="1430" width="50" height="30" as="geometry" />
        </mxCell>
        <mxCell id="UsvHcAkJqKgmJNEMrM5t-65" value="H = 0" style="text;html=1;align=center;verticalAlign=middle;resizable=0;points=[];autosize=1;strokeColor=none;fillColor=none;" vertex="1" parent="1">
          <mxGeometry x="3300" y="1438" width="50" height="30" as="geometry" />
        </mxCell>
        <mxCell id="UsvHcAkJqKgmJNEMrM5t-66" value="H = 0" style="text;html=1;align=center;verticalAlign=middle;resizable=0;points=[];autosize=1;strokeColor=none;fillColor=none;" vertex="1" parent="1">
          <mxGeometry x="1245" y="698" width="50" height="30" as="geometry" />
        </mxCell>
        <mxCell id="UsvHcAkJqKgmJNEMrM5t-67" value="H = 0" style="text;html=1;align=center;verticalAlign=middle;resizable=0;points=[];autosize=1;strokeColor=none;fillColor=none;" vertex="1" parent="1">
          <mxGeometry x="1450" y="680" width="50" height="30" as="geometry" />
        </mxCell>
        <mxCell id="UsvHcAkJqKgmJNEMrM5t-68" value="H = 0" style="text;html=1;align=center;verticalAlign=middle;resizable=0;points=[];autosize=1;strokeColor=none;fillColor=none;" vertex="1" parent="1">
          <mxGeometry x="1610" y="870" width="50" height="30" as="geometry" />
        </mxCell>
        <mxCell id="UsvHcAkJqKgmJNEMrM5t-69" value="H = 0" style="text;html=1;align=center;verticalAlign=middle;resizable=0;points=[];autosize=1;strokeColor=none;fillColor=none;" vertex="1" parent="1">
          <mxGeometry x="1060" y="698" width="50" height="30" as="geometry" />
        </mxCell>
      </root>
    </mxGraphModel>
  </diagram>
</mxfile>
